<?xml version="1.0" encoding="UTF-8"?>
<svg version="1.1" xmlns="http://www.w3.org/2000/svg" width="1254" height="1254">
<path d="M0 0 C413.82 0 827.64 0 1254 0 C1254 413.82 1254 827.64 1254 1254 C840.18 1254 426.36 1254 0 1254 C0 840.18 0 426.36 0 0 Z " fill="#02193A" transform="translate(0,0)"/>
<path d="M0 0 C1.09683105 0.00491455 2.19366211 0.0098291 3.32373047 0.01489258 C11.81944047 0.13711948 19.546962 0.97147189 27.75 3.3125 C29.56951172 3.82296875 29.56951172 3.82296875 31.42578125 4.34375 C73.65438283 17.32367323 104.1445192 50.60149316 124.75 88.3125 C125.12785645 88.99425293 125.50571289 89.67600586 125.89501953 90.37841797 C132.63318149 102.64266653 140.31941047 118.12098659 140.75 132.3125 C139.37890625 134.2109375 139.37890625 134.2109375 137.3125 135.6875 C121.42581933 148.20344147 110.401888 169.72810451 107.95654297 189.80859375 C107.49828135 195.364068 107.46297922 200.92842301 107.4375 206.5 C107.43186035 207.6758667 107.4262207 208.8517334 107.42041016 210.06323242 C107.58587607 230.04955109 113.13515277 247.22768006 126.625 262.20703125 C127.75 264.3125 127.75 264.3125 127.16015625 266.78125 C124.58477251 271.40409948 121.1560638 275.28287358 117.75 279.3125 C117.05519531 280.14394531 116.36039063 280.97539063 115.64453125 281.83203125 C98.78100794 301.33719938 75.0742233 315.05318994 50.8125 323.3125 C47.35925392 323.3125 46.85162879 322.84244239 44.1875 320.875 C38.72007552 317.13247999 33.13738125 317.49104592 26.75 318.3125 C18.72977011 320.30641826 12.37623718 324.33078556 7.8125 331.25 C6.02726773 336.39566948 6.19496456 339.84922476 8.125 344.9375 C11.11332983 349.58251795 15.60704839 351.67775026 20.75 353.3125 C28.27209778 354.53229964 35.19709824 353.20508488 41.75 349.3125 C45.76985937 345.97558448 47.78617188 342.41779686 49.5625 337.5625 C51.21088109 333.63021741 51.21088109 333.63021741 53.43359375 332.3203125 C54.90696238 331.86911076 56.39515126 331.46517485 57.890625 331.09375 C90.39498264 322.21277797 116.30502388 298.96337281 136.75 273.3125 C140.15312738 274.37125074 142.76353231 275.32152154 145.75 277.3125 C144.27206213 281.97235116 141.56035305 285.21330782 138.375 288.8125 C137.8375415 289.42778564 137.30008301 290.04307129 136.74633789 290.67700195 C135.09012149 292.56391342 133.42231319 294.4398498 131.75 296.3125 C131.27771973 296.84407715 130.80543945 297.3756543 130.31884766 297.92333984 C117.8086814 311.94064696 104.69521654 325.88250451 89.75 337.3125 C88.70085803 338.1599616 87.65412192 339.01040733 86.609375 339.86328125 C68.31123346 354.70283799 48.72233135 366.63986103 26.8828125 375.44140625 C24.10691743 376.57515094 21.36989163 377.79345423 18.625 379 C-3.15788089 387.96588191 -35.06058775 396.92052999 -57.84765625 387.5703125 C-70.5698373 380.90926811 -76.98974881 369.84483105 -83.375 357.5 C-84.12135731 356.07373301 -84.86802523 354.64762851 -85.61499023 353.22167969 C-95.80951902 333.68000239 -105.49821504 313.9677568 -113.25 293.3125 C-113.51522461 292.60834961 -113.78044922 291.90419922 -114.05371094 291.17871094 C-114.56264135 289.82474002 -115.07004758 288.47019488 -115.57568359 287.11499023 C-116.1473334 285.5869343 -116.72884513 284.06257338 -117.3125 282.5390625 C-125.96656658 258.52402773 -123.94717082 234.68004505 -118.75 210.1875 C-118.53641846 209.17848633 -118.32283691 208.16947266 -118.1027832 207.12988281 C-117.89355225 206.17694336 -117.68432129 205.22400391 -117.46875 204.2421875 C-117.28248047 203.38866699 -117.09621094 202.53514648 -116.90429688 201.65576172 C-116.25333198 199.32443297 -115.49006362 197.38987653 -114.25 195.3125 C-109.96204579 193.5788755 -104.78702027 193.86028066 -100.25 194.3125 C-98.56970006 195.28941857 -96.90071396 196.28638051 -95.25 197.3125 C-91.51906622 197.09002165 -91.51906622 197.09002165 -88.25 196.3125 C-86.89553947 192.24911842 -86.5861278 188.55680651 -87.25 184.3125 C-90.02202005 180.59007308 -92.74036481 178.41485527 -97.25 177.3125 C-103.36019579 176.73838764 -107.91623016 176.94380326 -113.25 180.3125 C-118.56186765 167.92231158 -121.84929316 148.71258275 -119.25 135.3125 C-117.33476757 132.27124822 -115.12708106 129.8638081 -112.0625 127.9375 C-104.02314682 126.15097707 -97.35721483 127.1155671 -90.25 131.3125 C-89.26 132.3025 -89.26 132.3025 -88.25 133.3125 C-86.93 133.3125 -85.61 133.3125 -84.25 133.3125 C-83.71731569 129.79678358 -84.3539282 127.7105094 -86.25 124.8125 C-90.43773085 119.36726357 -96.57843792 115.81019761 -103.25 114.3125 C-108.3318204 113.8875079 -112.62101927 113.92334866 -117.25 116.3125 C-116.71714979 109.04772532 -115.03708945 102.69273007 -112.6875 95.8125 C-112.14851074 94.22755737 -112.14851074 94.22755737 -111.59863281 92.6105957 C-104.50089288 72.19606992 -94.43249982 52.89292824 -79.25 37.3125 C-78.28329219 36.13180739 -77.32430879 34.94472669 -76.375 33.75 C-72.27389109 28.93516219 -67.23746936 25.16115242 -62.25 21.3125 C-61.46753906 20.70277344 -60.68507813 20.09304688 -59.87890625 19.46484375 C-42.35719302 6.49345739 -21.74050486 -0.11605252 0 0 Z " fill="#F8F9FA" transform="translate(573.25,387.6875)"/>
<path d="M0 0 C1.88579699 -0.00131229 3.77159344 -0.00394645 5.65738702 -0.0077675 C10.77718508 -0.01440134 15.89679098 -0.00257913 21.01656461 0.01256669 C26.56091327 0.02562668 32.1052527 0.02113061 37.64961243 0.01885986 C47.23497802 0.01729338 56.82028194 0.02663692 66.40563202 0.04357338 C80.26411321 0.06804402 94.12256485 0.07577687 107.9810653 0.07953735 C130.47024326 0.08608923 152.95938888 0.10599003 175.44854736 0.13444519 C197.28350658 0.16204052 219.11845699 0.18327071 240.95343018 0.19596863 C241.62760698 0.19636321 242.30178379 0.19675778 242.99639019 0.19716432 C249.7673379 0.2011202 256.53828567 0.2049476 263.3092335 0.2086809 C320.00527124 0.23995343 376.70127287 0.29284561 433.39727783 0.36076355 C433.25544087 2.11109199 433.10864354 3.86101889 432.95977783 5.61076355 C432.87856689 6.5852948 432.79735596 7.55982605 432.71368408 8.56388855 C432.44596716 10.93037396 432.01172527 13.06860848 431.39727783 15.36076355 C430.3772508 28.63038796 431.875146 41.37113122 434.39727783 54.36076355 C434.73821312 56.69299825 435.07269228 59.02619726 435.39727783 61.36076355 C433.93945457 61.36165918 433.93945457 61.36165918 432.45218033 61.36257291 C374.83310408 61.39832399 317.214076 61.45512489 259.5950489 61.5386845 C252.67455188 61.54871528 245.75405458 61.55855057 238.83355713 61.56828308 C237.80057322 61.56974079 237.80057322 61.56974079 236.74672095 61.57122795 C214.44373375 61.60260956 192.14075863 61.62109334 169.83775318 61.63285602 C146.25907893 61.64536178 122.68047218 61.67263325 99.10183054 61.71537662 C84.98317514 61.7404963 70.86460922 61.75388193 56.74593116 61.75219312 C47.06036357 61.75216334 37.37488704 61.76681582 27.68935495 61.79292783 C22.10377977 61.80755554 16.51839132 61.81579222 10.93280029 61.80656624 C5.8117519 61.79825093 0.69107789 61.80851205 -4.42991512 61.83310017 C-6.27538361 61.83876205 -8.12088784 61.83780231 -9.96634532 61.829276 C-24.13771539 61.76944954 -37.11701725 63.31723634 -49.85272217 70.11076355 C-50.51328613 70.45220398 -51.1738501 70.79364441 -51.85443115 71.14543152 C-57.85782378 74.33197662 -63.29335476 78.12045659 -68.60272217 82.36076355 C-69.20987061 82.80420105 -69.81701904 83.24763855 -70.44256592 83.70451355 C-85.84545471 95.59191949 -95.80921967 115.64532315 -98.39681017 134.58227503 C-100.16312449 148.91930405 -99.91393575 163.3517858 -99.9193964 177.77184629 C-99.92313183 181.86974862 -99.93830716 185.96761181 -99.95201111 190.06549072 C-99.97415924 197.1451691 -99.98924687 204.22483333 -99.9993782 211.30453873 C-100.0140364 221.54028206 -100.03959266 231.77597603 -100.06770949 242.01169018 C-100.11304859 258.62315202 -100.1497163 275.23462102 -100.18084717 291.84611511 C-100.21108571 307.9714534 -100.24546014 324.09677423 -100.28533936 340.22209167 C-100.28903168 341.71596342 -100.28903168 341.71596342 -100.29279859 343.24001439 C-100.30517422 348.23680701 -100.31763056 353.23359942 -100.330127 358.23039174 C-100.43350167 399.60715802 -100.52276823 440.98394581 -100.60272217 482.36076355 C-101.28785889 482.3848378 -101.97299561 482.40891205 -102.67889404 482.43371582 C-105.8203551 482.54671814 -108.96151955 482.66658099 -112.10272217 482.7865448 C-113.71920654 482.84316284 -113.71920654 482.84316284 -115.36834717 482.90092468 C-128.51826224 483.41459324 -140.05006493 486.18001438 -152.23944092 491.05607605 C-154.73704236 492.02494815 -157.01583011 492.75594388 -159.60272217 493.36076355 C-159.6714669 448.31487165 -159.72429082 403.26898532 -159.75591816 358.22305126 C-159.75967004 352.89867532 -159.76355303 347.57429949 -159.76751709 342.24992371 C-159.76830402 341.18998644 -159.76909095 340.13004916 -159.76990173 339.03799258 C-159.78293712 321.90090849 -159.80658063 304.76385475 -159.83418056 287.62678863 C-159.86228679 270.02789048 -159.87890944 252.42900817 -159.88498765 234.8300885 C-159.88909329 223.98044925 -159.90203611 213.13089582 -159.92647157 202.28128301 C-159.94239324 194.82996014 -159.94710804 187.37868129 -159.9432263 179.92734267 C-159.94131472 175.63553926 -159.94413644 171.34388525 -159.96033859 167.05210876 C-160.12914053 119.94905717 -148.42112796 79.92442526 -115.38397217 45.1381073 C-111.06850214 40.82869832 -106.43552434 37.06997306 -101.60272217 33.36076355 C-100.70295654 32.6337323 -99.80319092 31.90670105 -98.87615967 31.15763855 C-70.3654771 8.69467653 -35.74879462 -0.18878241 0 0 Z " fill="#FAFAFB" transform="translate(397.60272216796875,226.6392364501953)"/>
<path d="M0 0 C1.62750715 0.41964726 3.25511007 0.83892331 4.8828125 1.2578125 C13.56882794 3.53436384 21.86176393 6.15161242 30 10 C30.73476563 10.34691895 31.46953125 10.69383789 32.2265625 11.05126953 C52.55146014 20.7257595 70.61538521 32.48558478 87 48 C87.47872559 48.44085938 87.95745117 48.88171875 88.45068359 49.3359375 C110.79528002 69.99024687 126.57164476 97.02567905 138 125 C138.30454102 125.72300293 138.60908203 126.44600586 138.92285156 127.19091797 C163.29335 185.54486989 164.01279888 256.75978081 140.859375 315.61328125 C123.21974521 358.50186922 92.18269062 397.90865469 50 419 C51.175625 419.2475 52.35125 419.495 53.5625 419.75 C55.37630682 420.16094061 57.18862491 420.57846989 59 421 C60.670625 421.38478516 60.670625 421.38478516 62.375 421.77734375 C93.63436769 429.49284446 120.28719633 448.40979732 137 476 C149.55923465 497.88005507 155.03474617 520.84991945 154 546 C177.71450233 537.38654088 192.20830537 524.50728801 203.5078125 501.99609375 C209.77842496 488.19699147 210.44587834 473.78311236 210.39872742 458.90332031 C210.40417963 457.13234214 210.41093645 455.36136759 210.41886932 453.59039879 C210.43675399 448.76943472 210.43635499 443.94862578 210.43273985 439.12763643 C210.43211247 433.91175678 210.44876897 428.69592762 210.46325684 423.48007202 C210.48598308 414.45832945 210.49791761 405.43662534 210.50238609 396.41485596 C210.50886247 383.37112718 210.53182596 370.32746774 210.55872939 357.28376698 C210.60194132 336.1178987 210.63193998 314.95203335 210.65356445 293.78613281 C210.67459093 273.2333838 210.70188059 252.68065873 210.73754883 232.12792969 C210.73974765 230.85967315 210.74194648 229.59141661 210.74421193 228.28472805 C210.755282 221.92184366 210.76647473 215.5589595 210.77772844 209.19607544 C210.87083429 156.46407148 210.94246896 103.73205395 211 51 C212.3750193 51.01423759 212.3750193 51.01423759 213.77781677 51.02876282 C217.22494125 51.05991354 220.67191306 51.08250436 224.11912537 51.0995636 C225.60244631 51.10859911 227.08575148 51.12090695 228.5690155 51.13673401 C240.9351589 51.2652466 252.23492916 50.51927237 263.68359375 45.36328125 C267 44 267 44 271 44 C271.04582166 98.18423049 271.08104164 152.36845902 271.10213066 206.55270509 C271.10463194 212.9560352 271.1072206 219.35936526 271.10986328 225.76269531 C271.11065021 227.67480068 271.11065021 227.67480068 271.11145304 229.62553445 C271.12014523 250.24024848 271.13590865 270.85495131 271.15430559 291.4696587 C271.17303768 312.63714687 271.18412372 333.80462918 271.18817699 354.97212529 C271.19091519 368.02360379 271.19954987 381.07505061 271.21583293 394.12651935 C271.22644068 403.08789742 271.22959207 412.04925921 271.22700275 421.01064309 C271.22572735 426.17352182 271.22762157 431.33634537 271.23841095 436.49921417 C271.24824479 441.2398397 271.24857023 445.98037367 271.24179779 450.72100368 C271.24096252 452.42256142 271.24341304 454.12412521 271.24976636 455.82567129 C271.37751057 492.1974325 263.96664521 526.86839521 241 556 C240.26652344 556.93714844 239.53304687 557.87429688 238.77734375 558.83984375 C223.45609952 577.99796904 204.62603457 590.91862695 182 600 C181.08605469 600.391875 180.17210937 600.78375 179.23046875 601.1875 C177 602 177 602 174 602 C173.79246094 601.22398437 173.58492187 600.44796875 173.37109375 599.6484375 C169.34536124 585.53310763 162.37910982 569.77209338 151.37792969 559.48291016 C147.6516 555.87254508 146.59942754 553.29166595 146.3359375 548.078125 C146.32625357 545.80206669 146.34039287 543.5258158 146.375 541.25 C145.98948564 509.66324086 134.97999636 480.98187646 113.25 457.8125 C98.91303408 444.19238238 81.77126962 436.36916581 63 431 C62.11634766 430.66226562 61.23269531 430.32453125 60.32226562 429.9765625 C56.27517655 428.78694196 52.51601876 428.54736255 48.3203125 428.3671875 C47.10116653 428.30484421 47.10116653 428.30484421 45.85739136 428.24124146 C43.2802465 428.11126048 40.70272036 427.99295695 38.125 427.875 C36.36975343 427.78853306 34.61454436 427.70130149 32.859375 427.61328125 C28.57329988 427.40000332 24.28684413 427.19719103 20 427 C21.36752289 424.26495422 22.86536056 423.96810695 25.63671875 422.71484375 C26.599729 422.27132568 27.56273926 421.82780762 28.55493164 421.37084961 C29.5886792 420.89784424 30.62242676 420.42483887 31.6875 419.9375 C41.01769583 415.56775208 49.5700566 410.91955584 58 405 C59.16638385 404.2014097 60.33305801 403.40324325 61.5 402.60546875 C95.2486358 379.2751918 121.48438371 347.00732171 135 308 C135.2794043 307.20239258 135.55880859 306.40478516 135.84667969 305.58300781 C143.47859745 283.36971609 148.0279265 259.6563299 148.23828125 236.12890625 C148.24802979 235.21697006 148.25777832 234.30503387 148.26782227 233.36546326 C148.43889634 213.21817598 148.1911189 193.79329397 144 174 C143.81276367 173.07477539 143.62552734 172.14955078 143.43261719 171.19628906 C135.22202102 131.24939888 117.68257279 92.23918387 90 62 C89.27006836 61.20215088 89.27006836 61.20215088 88.52539062 60.38818359 C76.46863543 47.39948645 62.39239994 36.74483062 47 28 C45.87851562 27.34644531 44.75703125 26.69289063 43.6015625 26.01953125 C34.00305262 20.56577247 23.94295077 16.6017362 13.55224609 12.91845703 C11.27321371 12.0983193 9.02251729 11.22826212 6.76953125 10.33984375 C-28.89785401 -3.04539747 -73.96984371 -2.10690699 -111 4 C-111.98581055 4.1539624 -112.97162109 4.3079248 -113.98730469 4.46655273 C-120.32308094 5.47707786 -126.53516867 6.72207047 -132.75 8.3125 C-134.02907227 8.63734375 -134.02907227 8.63734375 -135.33398438 8.96875 C-153.54442173 13.66734159 -170.33657017 20.29781148 -187 29 C-187.66580078 29.34546875 -188.33160156 29.6909375 -189.01757812 30.046875 C-212.40326611 42.29978679 -233.91994169 60.0483208 -250 81 C-250.45391113 81.58861816 -250.90782227 82.17723633 -251.37548828 82.78369141 C-264.56182479 100.0988571 -274.32879112 119.30563775 -281 140 C-281.39703125 141.2065625 -281.7940625 142.413125 -282.203125 143.65625 C-283.25693776 147.0850736 -284.16290959 150.51212331 -285 154 C-285.2990625 155.22203125 -285.598125 156.4440625 -285.90625 157.703125 C-288.14022563 168.01813345 -288.29095485 178.366062 -288.3125 188.875 C-288.31608521 189.5824234 -288.31967041 190.2898468 -288.32336426 191.01870728 C-288.35755837 203.56776557 -286.62538014 215.0554019 -283.48828125 227.1875 C-283.01377888 229.92063363 -283.07686488 231.42265631 -284 234 C-285.65 233.01 -287.3 232.02 -289 231 C-289.08004482 234.5219721 -289.04005702 237.61981469 -288 241 C-288.99 241 -289.98 241 -291 241 C-291.14622803 240.22809326 -291.29245605 239.45618652 -291.44311523 238.66088867 C-292.10577932 235.16935076 -292.7716015 231.67842243 -293.4375 228.1875 C-293.78264648 226.36508789 -293.78264648 226.36508789 -294.13476562 224.50585938 C-294.35712891 223.34248047 -294.57949219 222.17910156 -294.80859375 220.98046875 C-295.11494751 219.37014771 -295.11494751 219.37014771 -295.42749023 217.72729492 C-295.9614029 214.92481773 -295.9614029 214.92481773 -297 212 C-303.18333511 165.96352674 -288.72688923 118.10573293 -260.80078125 81.23950195 C-255.68283406 74.70916998 -250.17459049 68.50679571 -244.44335938 62.51074219 C-243.46573162 61.48747417 -242.49320776 60.45930973 -241.52539062 59.42675781 C-220.25666439 36.79606269 -191.72387697 18.75927786 -162.29980469 8.78466797 C-159.6833329 7.89195668 -157.08091227 6.96261732 -154.4765625 6.03515625 C-105.2717281 -11.22934367 -50.40386646 -13.47707673 0 0 Z " fill="#F8F8F9" transform="translate(731,337)"/>
<path d="M0 0 C13.69057161 10.87669918 22.04875263 27.74140354 25.9765625 44.5703125 C25.9765625 45.5603125 25.9765625 46.5503125 25.9765625 47.5703125 C21.31762076 45.72721467 16.71491006 43.7611454 12.109375 41.7890625 C-18.69014073 29.80720601 -56.25468602 43.74208187 -84.69140625 56.2109375 C-103.68369881 64.77396698 -122.24173227 74.40805412 -140.61401367 84.22021484 C-148.83524479 88.58545346 -157.25609795 92.53173895 -165.68554688 96.47558594 C-167.68128012 97.41009595 -169.67359077 98.35123186 -171.6640625 99.296875 C-175.4394754 101.07922109 -179.22779687 102.83161567 -183.0234375 104.5703125 C-184.11350098 105.07030762 -185.20356445 105.57030273 -186.32666016 106.08544922 C-189.50870806 107.54268234 -192.6948427 108.990729 -195.88305664 110.43441772 C-197.16755213 111.01710961 -198.45111103 111.60187132 -199.73364258 112.18887329 C-207.0442597 115.53158515 -214.22968103 118.55567659 -222.0234375 120.5703125 C-222.0234375 121.2303125 -222.0234375 121.8903125 -222.0234375 122.5703125 C-184.92521699 119.2650947 -150.24748373 101.28239378 -117.50512695 84.77099609 C-31.76147781 41.53515779 -31.76147781 41.53515779 6.44140625 53.3203125 C26.72633287 60.49288324 40.25624067 74.84362376 52.9765625 91.5703125 C53.45206543 92.19035156 53.92756836 92.81039062 54.41748047 93.44921875 C60.95015034 101.99588687 67.43356018 110.76920564 71.9765625 120.5703125 C71.6465625 121.2303125 71.3165625 121.8903125 70.9765625 122.5703125 C70.40808594 122.24417969 69.83960938 121.91804687 69.25390625 121.58203125 C54.31596018 113.12800167 40.31407718 109.79255862 23.2890625 109.9453125 C22.08375381 109.94878693 22.08375381 109.94878693 20.85409546 109.95233154 C0.69285407 110.06648328 -17.91618662 114.3736036 -36.87890625 121.12890625 C-41.19147118 122.65996409 -45.56185469 123.93870958 -49.9609375 125.1953125 C-55.52874154 126.79585105 -60.962831 128.57988379 -66.390625 130.61328125 C-71.53412222 132.48295012 -76.77665837 134.01951372 -82.0234375 135.5703125 C-82.74192871 135.78413574 -83.46041992 135.99795898 -84.20068359 136.21826172 C-107.18112023 143.02923823 -130.35242522 148.75174142 -153.94580078 152.99536133 C-155.69475868 153.3220943 -157.44217804 153.65823331 -159.1834259 154.02383423 C-178.18469629 157.98894821 -197.33032419 159.03077494 -216.69506836 158.8515625 C-220.11648465 158.82003098 -223.53743599 158.8105259 -226.95898438 158.8046875 C-243.11497933 158.74905191 -259.17484605 158.53480907 -275.1484375 155.8828125 C-276.20337402 155.70911133 -277.25831055 155.53541016 -278.34521484 155.35644531 C-299.23077436 151.75967831 -321.3010419 146.29410495 -340.19360352 136.4765625 C-342.96758472 135.10271083 -345.84507221 134.12611951 -348.7734375 133.1328125 C-354.46819671 131.16931335 -359.93768931 128.92210154 -365.40234375 126.390625 C-369.23686349 125.19055176 -371.76670155 125.99289328 -375.3359375 127.6328125 C-375.8928125 127.9421875 -376.4496875 128.2515625 -377.0234375 128.5703125 C-372.73792702 105.18723588 -356.8281781 83.89025159 -337.80541992 70.2980957 C-328.75243533 64.11857994 -318.63080343 59.33624886 -308.0234375 56.5703125 C-308.01957031 58.25833984 -308.01957031 58.25833984 -308.015625 59.98046875 C-307.80813769 71.05616561 -305.95314156 79.66450716 -301.0234375 89.5703125 C-300.56839844 90.50617188 -300.11335937 91.44203125 -299.64453125 92.40625 C-294.63709056 101.67928831 -285.82535208 110.1697234 -275.5859375 113.3203125 C-275.0703125 113.4028125 -274.5546875 113.4853125 -274.0234375 113.5703125 C-276.08991841 109.90019025 -278.41596546 106.89906426 -281.2109375 103.7578125 C-292.74963665 89.75325758 -298.61512275 72.80837262 -297.0234375 54.5703125 C-294.89559474 39.51582499 -287.82643586 27.26806526 -275.7421875 17.96875 C-266.67450617 11.38597398 -256.74865554 6.78903991 -246.0234375 3.5703125 C-245.0334375 4.0653125 -245.0334375 4.0653125 -244.0234375 4.5703125 C-244.77367187 5.20195313 -245.52390625 5.83359375 -246.296875 6.484375 C-261.2359212 19.40323799 -273.58350591 36.58482551 -275.20361328 56.82080078 C-275.91054721 69.3251698 -275.19262446 80.81236948 -266.8125 90.84375 C-260.74939841 96.69504018 -254.39714582 98.05356639 -246.2109375 98.1328125 C-224.06456187 97.67289288 -204.38568217 84.30289767 -187.0234375 71.5703125 C-186.25757324 71.01408203 -185.49170898 70.45785156 -184.70263672 69.88476562 C-176.89824359 64.21510816 -169.15256208 58.47391717 -161.5234375 52.5703125 C-48.27920907 -34.93659129 -48.27920907 -34.93659129 0 0 Z " fill="#004CBA" transform="translate(821.0234375,812.4296875)"/>
<path d="M0 0 C4.75 0.75 4.75 0.75 7 3 C6.85009766 5.18188477 6.85009766 5.18188477 6.2890625 7.87890625 C6.08829102 8.87035645 5.88751953 9.86180664 5.68066406 10.88330078 C5.03275975 13.84999607 4.37454621 16.81412569 3.7109375 19.77734375 C-0.06927571 36.90201468 -2.73721155 55.61305958 1 73 C1.49889262 77.44467967 1.52982318 79.28402274 -1.16796875 82.9296875 C-2.16033066 83.92575729 -3.16796759 84.90675888 -4.1875 85.875 C-9.02909618 90.78174924 -13.36815717 95.85672071 -17.5 101.375 C-21.09760389 106.17394566 -24.71866446 110.92734107 -28.52001953 115.56713867 C-34.79056193 123.2268824 -40.39404274 131.24291186 -45.91796875 139.453125 C-48.51013744 143.3027068 -51.19918272 147.06636903 -53.9375 150.8125 C-60.14415508 159.37512457 -65.69363074 168.3704003 -71.30908203 177.32617188 C-72.90051558 179.84268649 -74.51960958 182.33827028 -76.15234375 184.828125 C-76.62607422 185.55918457 -77.09980469 186.29024414 -77.58789062 187.04345703 C-78.46379876 188.39439639 -79.34873191 189.73954276 -80.24414062 191.07763672 C-82.3847717 194.34783715 -82.3847717 194.34783715 -82.984375 198.12109375 C-81.67295534 200.62424 -80.06402638 202.71889992 -78.3125 204.9375 C-68.0961161 218.72412558 -64.44923588 233.52899811 -64.625 250.5 C-64.61339844 251.62019531 -64.60179687 252.74039063 -64.58984375 253.89453125 C-64.62885641 265.16918907 -66.74445708 275.62262007 -71.75 285.75 C-72.10070557 286.47388916 -72.45141113 287.19777832 -72.81274414 287.94360352 C-75.6040797 293.54202354 -78.81856792 298.33506186 -83 303 C-83.65355469 303.80566406 -84.30710937 304.61132812 -84.98046875 305.44140625 C-97.93513031 320.89733216 -116.25991199 329.32359918 -136 332 C-141.01297397 332.43308885 -145.98060802 332.27316419 -151 332 C-152.01320313 331.979375 -153.02640625 331.95875 -154.0703125 331.9375 C-174.0540884 331.08485889 -191.53477052 320.17631379 -205.12890625 306.1171875 C-221.95301913 287.08029985 -226.09698276 265.54781461 -225.18652344 240.91650391 C-224.18423726 225.24463128 -216.22217612 209.71530297 -206 198 C-205.23042969 197.03191406 -204.46085937 196.06382812 -203.66796875 195.06640625 C-192.43046336 181.59406176 -174.17914641 172.55727598 -157 170 C-147.33967402 169.24476833 -137.56370959 169.40386789 -128 171 C-127.74476563 170.31421875 -127.48953125 169.6284375 -127.2265625 168.921875 C-117.85513227 146.59757624 -102.06975185 125.49730705 -88 105.9375 C-87.58194092 105.35589111 -87.16388184 104.77428223 -86.7331543 104.17504883 C-85.4908675 102.44850877 -84.24553508 100.7241974 -83 99 C-82.28457031 98.00484375 -81.56914062 97.0096875 -80.83203125 95.984375 C-77.2733735 91.05594376 -73.64664811 86.19759276 -69.890625 81.41796875 C-67.69452879 78.60932505 -65.5369801 75.77248358 -63.375 72.9375 C-51.00945611 56.82157452 -37.94656408 41.28400891 -24.09741211 26.42333984 C-21.50523572 23.64147093 -18.96561745 20.83192049 -16.5 17.9375 C-12.89271519 13.74694774 -8.94994092 9.89725994 -4.99804688 6.03491211 C-2.13883441 3.2936964 -2.13883441 3.2936964 0 0 Z " fill="#0062F8" transform="translate(440,578)"/>
<path d="M0 0 C1.3397378 1.09638699 2.67305451 2.20066482 4 3.3125 C4.81984375 3.94285156 5.6396875 4.57320312 6.484375 5.22265625 C20.27236757 16.67696685 28.92810135 34.97438894 32 52.3125 C33.75136499 77.37918854 29.99699794 101.43830162 13.12109375 121.01171875 C12.07115234 122.15060547 12.07115234 122.15060547 11 123.3125 C10.22785156 124.16457031 9.45570313 125.01664063 8.66015625 125.89453125 C-4.13852048 139.38065666 -23.23771912 150.0617467 -42.0859375 150.84375 C-44.51558829 150.86068767 -46.94557515 150.8497122 -49.375 150.8125 C-50.64996338 150.79968994 -51.92492676 150.78687988 -53.23852539 150.77368164 C-67.68471769 150.46254425 -83.83556872 147.41089987 -95.08203125 137.47265625 C-95.71496094 137.08980469 -96.34789062 136.70695313 -97 136.3125 C-100.63992084 137.49081389 -103.80579564 139.26744644 -107.078125 141.2265625 C-108.06119629 141.814375 -109.04426758 142.4021875 -110.05712891 143.0078125 C-111.11077637 143.64460937 -112.16442383 144.28140625 -113.25 144.9375 C-114.90588135 145.93523437 -114.90588135 145.93523437 -116.59521484 146.953125 C-128.54291099 154.17707562 -140.28890671 161.7121939 -152 169.3125 C-153.01964844 169.9734668 -154.03929687 170.63443359 -155.08984375 171.31542969 C-166.78096733 178.89976686 -178.43010062 186.5444001 -190 194.3125 C-190.64050293 193.76070068 -190.64050293 193.76070068 -191.29394531 193.19775391 C-205.43136004 181.04514864 -220.05511928 169.36470732 -237 161.3125 C-233.84964733 158.89814982 -230.60240867 156.6710738 -227.30078125 154.46875 C-226.75326706 154.10327057 -226.20575287 153.73779114 -225.64164734 153.36123657 C-223.86620884 152.17690082 -222.08948524 150.99451357 -220.3125 149.8125 C-219.4002063 149.20507965 -219.4002063 149.20507965 -218.46948242 148.58538818 C-209.35440432 142.51777053 -200.22106274 136.48124753 -190.99267578 130.58691406 C-189.64814723 129.727022 -188.3054099 128.86432361 -186.96435547 127.99902344 C-175.91774829 120.87168137 -164.67759734 114.08594221 -153.375 107.375 C-152.68018524 106.96217773 -151.98537048 106.54935547 -151.26950073 106.12402344 C-143.90302784 101.751286 -136.53035368 97.39948683 -129 93.3125 C-129.2165625 92.54292969 -129.433125 91.77335937 -129.65625 90.98046875 C-131.79033534 82.17736671 -132.33031046 73.6802178 -132.375 64.625 C-132.38853516 63.49795654 -132.40207031 62.37091309 -132.41601562 61.2097168 C-132.30767146 40.5836964 -123.34897738 22.33048565 -109.28515625 7.54296875 C-98.25326273 -3.22491365 -84.27053128 -11.7426386 -69 -14.6875 C-68.18144531 -14.88859375 -67.36289062 -15.0896875 -66.51953125 -15.296875 C-43.26424095 -20.50380838 -18.80095595 -14.35374777 0 0 Z " fill="#0062F8" transform="translate(1010,192.6875)"/>
<path d="M0 0 C0.33 0 0.66 0 1 0 C1.00410889 0.60432861 1.00821777 1.20865723 1.01245117 1.83129883 C1.37347997 32.89421666 5.34489597 65.50928911 15.34228516 95.01806641 C16.00574149 97.01730121 16.62223804 99.02630532 17.23046875 101.04296875 C25.16139504 126.81175299 37.41953105 151.98081873 53 174 C53.73347656 175.06863281 54.46695313 176.13726563 55.22265625 177.23828125 C71.52833457 200.78718445 91.28213284 223.46916031 114 241 C115.01578125 241.83273437 116.0315625 242.66546875 117.078125 243.5234375 C155.84291004 275.18890793 203.74016705 295.28222555 253 303 C254.01481445 303.16935059 255.02962891 303.33870117 256.07519531 303.51318359 C266.31285026 305.12375245 276.53344702 305.64613391 286.875 306.125 C288.64195638 306.21164414 290.40888385 306.29888001 292.17578125 306.38671875 C296.45021909 306.59795059 300.72496503 306.80123548 305 307 C305 307.33 305 307.66 305 308 C204.35 308 103.7 308 0 308 C0 206.36 0 104.72 0 0 Z " fill="#FCFCFC" transform="translate(0,946)"/>
<path d="M0 0 C97.02 0 194.04 0 294 0 C294 0.33 294 0.66 294 1 C289.76560915 1.71079445 285.60572154 2.10825029 281.31640625 2.32421875 C219.3422006 5.52642048 159.36743648 28.66260093 112 69 C110.95134742 69.86428514 109.90182367 70.72751405 108.8515625 71.58984375 C101.75041878 77.47930073 95.08939641 83.72979579 88.5625 90.25 C87.81734131 90.99435303 87.07218262 91.73870605 86.30444336 92.50561523 C40.25014995 139.02505133 6.5620423 206.42323393 3.4375 272.4375 C3.09685602 279.43808133 3.09685602 279.43808133 2.5078125 282.85546875 C1.80893471 287.18313506 1.63847217 291.49973697 1.4375 295.875 C1.37272461 297.19371094 1.37272461 297.19371094 1.30664062 298.5390625 C1.20130661 300.69255797 1.10022351 302.84626064 1 305 C0.67 305 0.34 305 0 305 C0 204.35 0 103.7 0 0 Z " fill="#FCFCFC" transform="translate(0,0)"/>
<path d="M0 0 C0.33 0 0.66 0 1 0 C1 98.01 1 196.02 1 297 C-98.66 297 -198.32 297 -301 297 C-301 296.67 -301 296.34 -301 296 C-300.42596436 295.99589111 -299.85192871 295.99178223 -299.26049805 295.98754883 C-224.02187279 295.0686599 -153.75497423 267.84916304 -98.21875 216.97265625 C-96.66620891 215.59231602 -95.06441645 214.2663205 -93.4296875 212.984375 C-91.2106231 211.17202015 -89.45540321 209.37951945 -87.625 207.1875 C-85.43111444 204.61227381 -83.20791509 202.19767096 -80.75 199.875 C-75.78486655 194.98744676 -71.68077382 189.35818875 -67.43945312 183.84960938 C-66.05821354 182.07480085 -64.65274185 180.32334168 -63.234375 178.578125 C-21.85829524 127.47257635 -4.44877056 64.52525755 0 0 Z " fill="#FCFCFC" transform="translate(1253,957)"/>
<path d="M0 0 C99.99 0 199.98 0 303 0 C303 98.01 303 196.02 303 297 C302.67 297 302.34 297 302 297 C301.89977539 295.90349121 301.79955078 294.80698242 301.69628906 293.67724609 C296.55726456 237.92603448 284.44130426 185.29415932 253 138 C252.53996582 137.30100586 252.07993164 136.60201172 251.60595703 135.88183594 C245.85591368 127.18432473 239.76978083 118.93972618 233 111 C232.19046875 110.00613281 231.3809375 109.01226562 230.546875 107.98828125 C217.18081552 91.73159977 201.99599767 76.42990874 185 64 C183.94918348 63.1768822 182.9023242 62.34868877 181.859375 61.515625 C160.16389059 44.23300882 135.62525982 31.40343731 110 21 C109.18998535 20.66629395 108.3799707 20.33258789 107.54541016 19.98876953 C77.60344115 7.77814822 43.98687048 2.58725782 11.8125 1.4375 C10.09836914 1.37272461 10.09836914 1.37272461 8.34960938 1.30664062 C5.56649189 1.20183704 2.78330535 1.09966701 0 1 C0 0.67 0 0.34 0 0 Z " fill="#FCFCFC" transform="translate(951,0)"/>
<path d="M0 0 C2.2302744 2.2302744 2.61848149 3.48415487 3.5234375 6.4609375 C3.96187988 7.85880493 3.96187988 7.85880493 4.40917969 9.28491211 C4.72790039 10.30464111 5.04662109 11.32437012 5.375 12.375 C15.80119056 44.58256574 30.49835139 82.34857382 52 109 C52.49113281 109.62648438 52.98226562 110.25296875 53.48828125 110.8984375 C61.46391856 119.96256129 75.21986944 125.13386298 86.98486328 126.17578125 C102.59150984 127.17096709 117.77057074 124.06393908 133 121 C135.13391403 127.25948114 135.58955515 133.42208127 136 140 C135.2471875 140.20753906 134.494375 140.41507813 133.71875 140.62890625 C119.63943644 144.71259064 106.82025178 150.19382164 95 159 C94.33613281 159.49113281 93.67226563 159.98226562 92.98828125 160.48828125 C85.43898288 166.51075523 77.56521203 175.51818743 75.53710938 185.21264648 C74.74366488 188.79425187 74.12152812 191.26958122 70.9543457 193.33227539 C68.26952191 194.38609957 65.58815793 195.21635871 62.8125 196 C60.80899173 196.64678385 58.80897146 197.30446732 56.8125 197.97265625 C55.82507813 198.30281738 54.83765625 198.63297852 53.8203125 198.97314453 C42.63928596 203.04407577 32.71314144 210.00652806 24 218 C23.51047852 218.44182617 23.02095703 218.88365234 22.51660156 219.33886719 C9.19986243 231.47339739 -2.14828843 248.1555971 -6 266 C-6.05442668 267.91067616 -6.06888067 269.82276769 -6.05053711 271.73413086 C-6.03959267 273.21483315 -6.03959267 273.21483315 -6.02842712 274.72544861 C-6.01904617 275.47605057 -6.00966522 276.22665253 -6 277 C-13.39739218 277.07688183 -20.7946791 277.12894407 -28.19238281 277.16479492 C-30.7021876 277.17976106 -33.21196679 277.20014122 -35.72167969 277.22631836 C-49.47464707 277.36603974 -62.62174696 277.47780868 -76 274 C-76.90427734 273.77449463 -77.80855469 273.54898926 -78.74023438 273.31665039 C-80.92922301 272.73934694 -83.08807868 272.10807638 -85.25 271.4375 C-85.95511719 271.22931641 -86.66023438 271.02113281 -87.38671875 270.80664062 C-90.74996039 269.79258194 -93.92816602 268.71801024 -97 267 C-97 266.34 -97 265.68 -97 265 C-95.71029297 264.32517578 -95.71029297 264.32517578 -94.39453125 263.63671875 C-82.53142055 257.25761059 -72.57937343 249.67858359 -64.125 239.125 C-63.70903564 238.60921387 -63.29307129 238.09342773 -62.86450195 237.56201172 C-58.40187977 231.7044331 -55.59254632 225.67187173 -52 219 C-35.5 219 -19 219 -2 219 C-3.11358083 221.78395207 -4.24385435 224.56192525 -5.4375 227.3125 C-8.93229875 235.48289239 -11.12725793 243.07696467 -12 252 C-11.53851563 250.99582031 -11.07703125 249.99164062 -10.6015625 248.95703125 C-6.0538802 239.3214887 -0.87323543 231.12778854 6 223 C6.75410156 222.10539063 7.50820313 221.21078125 8.28515625 220.2890625 C21.73093376 204.87503184 40.66341872 190.08137905 61.3125 186.15234375 C65.11000128 185.39404528 65.11000128 185.39404528 66.59375 182.56640625 C66.8928125 181.57511719 67.191875 180.58382812 67.5 179.5625 C73.97919287 161.54560819 90.04400141 148.33537782 106.8515625 140.0390625 C109.88032362 138.63355897 112.91612583 137.27931374 116 136 C113.34970888 136 110.87998343 136.21309272 108.25 136.5 C88.11635764 138.30143116 70.22696942 136.009927 53.49609375 124.23828125 C45.54269762 117.56116395 39.23453662 109.49512013 34.25 100.4375 C33.74686279 99.53765381 33.24372559 98.63780762 32.7253418 97.71069336 C24.72517413 83.24880405 17.27387647 68.52036385 10.9375 53.25 C10.57954346 52.39414307 10.22158691 51.53828613 9.8527832 50.65649414 C5.62175075 40.1477476 3.5480096 29.28088269 1.8125 18.125 C1.63525391 17.03703125 1.45800781 15.9490625 1.27539062 14.828125 C0.4817315 9.81489595 -0.09240534 5.08745354 0 0 Z " fill="#F5F5F7" transform="translate(442,664)"/>
<path d="M0 0 C0.68223633 0.23605957 1.36447266 0.47211914 2.06738281 0.71533203 C17.81775185 6.32084428 31.47146974 14.96944619 44 26 C45.27617188 27.11181641 45.27617188 27.11181641 46.578125 28.24609375 C70.18950854 49.1414439 87.4673433 74.69173305 101 103 C101.69222656 104.43085938 101.69222656 104.43085938 102.3984375 105.890625 C115 132.69904459 115 132.69904459 115 143 C113.78183594 143.12117187 112.56367187 143.24234375 111.30859375 143.3671875 C109.68486171 143.53613072 108.06116565 143.70541996 106.4375 143.875 C105.63763672 143.95363281 104.83777344 144.03226563 104.01367188 144.11328125 C99.13164237 144.63137418 94.67829193 145.50545842 90 147 C89.69707031 145.98421875 89.39414062 144.9684375 89.08203125 143.921875 C78.92521736 110.3309911 60.9129271 80.59308375 37 55 C36.19046875 54.12472656 35.3809375 53.24945313 34.546875 52.34765625 C13.30304615 30.18156537 -18.994502 10.61683498 -50.44726562 9.92407227 C-54.46541914 9.90166527 -58.48194224 9.9124933 -62.5 9.9375 C-63.90885258 9.94252467 -65.31770689 9.94708587 -66.7265625 9.95117188 C-70.15108638 9.9628997 -73.57552047 9.97931309 -77 10 C-56.35313103 -5.90277531 -24.14590425 -8.48946103 0 0 Z " fill="#F7F7F9" transform="translate(636,364)"/>
<path d="M0 0 C10.36040502 6.09735312 16.59286861 15.30226624 19.76171875 26.84765625 C23.27147107 41.91957634 20.23287372 58.10046848 12.875 71.5625 C7.08198199 80.21517575 -0.1936237 85.6604497 -10.375 88 C-17.56045014 89.26215919 -22.64185438 87.56493135 -28.83203125 83.828125 C-38.03069467 77.21526097 -43.21889519 67.01674519 -45.86328125 56.1640625 C-48.36911423 40.66998074 -45.75085307 25.42041362 -37.03515625 12.1796875 C-27.74912191 -0.01232936 -15.31075892 -6.97017574 0 0 Z " fill="#0061F4" transform="translate(775.375,547)"/>
<path d="M0 0 C0.28943404 3.94661789 0.57404355 7.89355349 0.85449219 11.84082031 C0.99689249 13.83155745 1.14293693 15.82203284 1.2890625 17.8125 C1.78967114 24.89253641 2.11960019 31.9031772 2 39 C-8.8984375 44.44921875 -8.8984375 44.44921875 -19.796875 49.8984375 C-20.97677505 50.48847061 -20.97677505 50.48847061 -22.18051147 51.09042358 C-23.77394024 51.88702568 -25.36754912 52.68326759 -26.96133423 53.47915649 C-30.77323925 55.38323103 -34.58238161 57.29231666 -38.38427734 59.21630859 C-86.30474385 83.42915828 -86.30474385 83.42915828 -111 80 C-113.31 79.01 -115.62 78.02 -118 77 C-118 67.43 -118 57.86 -118 48 C-114.184375 47.2575 -110.36875 46.515 -106.4375 45.75 C-101.95477989 44.85023638 -97.47704973 43.92752199 -93 43 C-92.26168945 42.85079102 -91.52337891 42.70158203 -90.76269531 42.54785156 C-61.57151584 36.48755915 -32.72699209 19.58131865 -7.83251953 3.609375 C-7.11563965 3.15046875 -6.39875977 2.6915625 -5.66015625 2.21875 C-5.00797119 1.79529297 -4.35578613 1.37183594 -3.68383789 0.93554688 C-2 0 -2 0 0 0 Z " fill="#E2E6EB" transform="translate(710,753)"/>
<path d="M0 0 C0.66 0 1.32 0 2 0 C3.75889003 1.98180491 5.38796471 3.9652219 7 6.0625 C7.73802856 7.02023315 7.73802856 7.02023315 8.4909668 7.99731445 C10.00839761 9.98783094 11.50799913 11.99036618 13 14 C13.41846191 14.56106445 13.83692383 15.12212891 14.26806641 15.70019531 C27.79748011 34.1357578 44.12063892 60.49174701 45 84 C43.62890625 85.8984375 43.62890625 85.8984375 41.5625 87.375 C28.70479601 97.50463462 21.85855839 110.89406909 16.2265625 125.91796875 C15 129 15 129 13 132 C12.93006836 131.39639648 12.86013672 130.79279297 12.78808594 130.17089844 C10.1475146 107.90009902 4.47912914 92.68983497 -9.83325195 75.32958984 C-19.37001496 63.58659519 -20.04821066 51.67494928 -19 37 C-17.03216921 23.17078914 -9.82108754 9.82108754 0 0 Z " fill="#FBFBFC" transform="translate(669,436)"/>
<path d="M0 0 C8.01502478 5.11303305 13.60519891 12.32537508 16.8125 21.3125 C16.4825 21.9725 16.1525 22.6325 15.8125 23.3125 C15.22855469 22.64154297 15.22855469 22.64154297 14.6328125 21.95703125 C8.37021584 15.18938647 0.73565134 10.66734317 -8.578125 10.109375 C-18.75858973 9.8980603 -18.75858973 9.8980603 -28.1875 13.3125 C-28.91195312 13.7146875 -29.63640625 14.116875 -30.3828125 14.53125 C-42.00148454 21.62060921 -49.40304399 32.58837734 -53.4375 45.375 C-53.82035156 46.5206543 -53.82035156 46.5206543 -54.2109375 47.68945312 C-59.76458182 64.77421683 -58.3171879 83.48776464 -50.578125 99.6796875 C-48.9337815 102.40265999 -47.19697665 104.84899934 -45.1875 107.3125 C-44.59195313 108.04726563 -43.99640625 108.78203125 -43.3828125 109.5390625 C-37.16431639 116.42843371 -28.11403507 121.73713287 -18.7421875 122.515625 C-9.65500428 122.67458447 -2.16292 120.71996895 5.8125 116.3125 C2.88911356 123.50852815 -5.27203915 128.20211147 -12.0078125 131.5234375 C-22.63042308 135.36889868 -35.01984342 136.40765077 -45.6875 132.25 C-51.1117209 129.61580244 -55.68957974 126.30385837 -60.1875 122.3125 C-61.07501953 121.59900391 -61.07501953 121.59900391 -61.98046875 120.87109375 C-75.23066314 109.25822315 -80.46813349 90.06666731 -81.625 73.125 C-82.44954628 51.84190934 -75.99410828 30.42189266 -61.9375 14.1875 C-45.22857005 -3.73508533 -22.82496395 -12.57772038 0 0 Z " fill="#F6F7F8" transform="translate(774.1875,523.6875)"/>
<path d="M0 0 C1.64502154 2.82943705 2.94842953 5.09530657 3.13671875 8.3984375 C1.25518866 12.70461976 -2.675627 13.91531375 -6.75 15.9375 C-25.00157549 25.50394488 -41.33967006 37.53760106 -57.58984375 50.13964844 C-61.77862556 53.37288561 -66.01719695 56.53895591 -70.25952148 59.70141602 C-73.49637058 62.11601262 -76.71712977 64.54717791 -79.91015625 67.01953125 C-92.98816744 77.09394145 -106.87431295 86.2723873 -122 93 C-123.10794922 93.50660156 -123.10794922 93.50660156 -124.23828125 94.0234375 C-130.742553 96.61563355 -138.1136773 97.12411694 -145 96 C-147.18215264 93.98952811 -147.86914833 92.67194101 -148.43359375 89.7734375 C-148.45161432 78.70880778 -143.54189394 69.74276313 -137 61 C-136.01 60.34 -135.02 59.68 -134 59 C-134.33 62.63 -134.66 66.26 -135 70 C-125.94203444 62.75362755 -124.27039651 50.89771417 -123 40 C-122.29617188 40.02094727 -121.59234375 40.04189453 -120.8671875 40.06347656 C-106.91582651 40.42318855 -94.33150631 40.51891608 -81 36 C-79.65250249 35.57111552 -78.30484119 35.14274536 -76.95703125 34.71484375 C-52.39977165 26.67259955 -29.39363959 13.96638483 -6.65380859 1.87280273 C-4.06425734 0.50615884 -3.05129157 0 0 0 Z " fill="#E2E6EB" transform="translate(715,802)"/>
<path d="M0 0 C0.99 0.33 1.98 0.66 3 1 C3.85521008 3.57167413 4.54647555 6.06229839 5.1875 8.6875 C8.32377207 20.33861565 13.70440661 30.10456081 21.9453125 39.03515625 C23 41 23 41 22.40234375 43.453125 C19.84778292 48.09260594 16.40835387 51.96766424 13 56 C12.30519531 56.83144531 11.61039063 57.66289063 10.89453125 58.51953125 C-1.27557748 72.59606867 -16.57142555 83.15766151 -33.25 91.1875 C-34.48375366 91.78606812 -34.48375366 91.78606812 -35.74243164 92.39672852 C-36.89859985 92.93317993 -36.89859985 92.93317993 -38.078125 93.48046875 C-38.76293945 93.79910889 -39.44775391 94.11774902 -40.15332031 94.44604492 C-42 95 -42 95 -45 94 C-33.04731541 35.72265571 -33.04731541 35.72265571 -13.67578125 16.7421875 C-13.09908691 16.1737915 -12.52239258 15.60539551 -11.92822266 15.01977539 C-10.8001535 13.91338161 -9.66355729 12.81558912 -8.51708984 11.72827148 C-4.81143264 8.13067238 -2.38328393 4.5876773 0 0 Z " fill="#E5E9ED" transform="translate(678,611)"/>
<path d="M0 0 C5.4653923 3.98084803 9.34232109 9.56354941 11.015625 16.14453125 C12.61884423 27.21022919 10.6187828 37.58368853 4.0625 46.74609375 C1.47679438 49.62508542 -1.12135712 51.00793405 -4.625 52.625 C-5.615 53.12 -5.615 53.12 -6.625 53.625 C-11.90566954 54.28105059 -16.42200212 54.03635011 -20.99609375 51.01171875 C-27.73877527 45.27154623 -31.04119528 38.04141049 -31.9765625 29.36328125 C-32.36602648 20.04689299 -30.92073671 11.66168513 -24.72265625 4.39453125 C-17.59244388 -2.2429985 -8.7931532 -5.23155669 0 0 Z " fill="#004BB5" transform="translate(774.625,565.375)"/>
<path d="M0 0 C0.33 0 0.66 0 1 0 C1.0276619 1.49988961 1.0466861 2.99993869 1.0625 4.5 C1.07410156 5.3353125 1.08570313 6.170625 1.09765625 7.03125 C1 10 1 10 0.4296875 13.7421875 C-0.00602919 16.87757373 0.13074533 19.5367555 0.59765625 22.6640625 C1.23044891 28.09141376 1.48870547 33.00061815 -1 38 C-7.28760237 43.87372793 -15.72737521 47.0170264 -23.51464844 50.42382812 C-28.62212243 52.7335684 -33.44258121 55.48352447 -38.3125 58.25 C-53.38483224 66.54662136 -68.87064932 73.99102622 -85 80 C-85.928125 80.350625 -86.85625 80.70125 -87.8125 81.0625 C-93.59027778 83.13657407 -93.59027778 83.13657407 -97 82 C-96.43716309 81.71914551 -95.87432617 81.43829102 -95.29443359 81.14892578 C-83.50165754 75.22490031 -72.42768743 69.10287055 -62 61 C-61.12472656 60.33484375 -60.24945312 59.6696875 -59.34765625 58.984375 C-53.56074379 54.48649044 -48.18492958 49.58584577 -42.8203125 44.6015625 C-40.4974059 42.45882594 -38.14695757 40.37106356 -35.75 38.3125 C-29.77356457 33.11559962 -24.34942831 27.48561298 -19.1953125 21.48046875 C-15.5194049 17.32708561 -11.69682024 13.30877388 -7.88623047 9.27905273 C-5.06944691 6.28539777 -2.44232484 3.31219396 0 0 Z " fill="#DEE4E9" transform="translate(710,705)"/>
<path d="M0 0 C3.20291835 2.13053384 6.0904635 4.49199189 9 7 C13.24800878 9.83200586 17.0099795 9.53714729 22 9 C25.30101131 7.60075055 25.30101131 7.60075055 28 6 C29.32 6 30.64 6 32 6 C32.05668719 8.83435956 32.05226473 10.42607795 31 13 C23.96017838 19.55176676 16.25222111 21.33268433 6.9375 21.1875 C6.14794922 21.18685547 5.35839844 21.18621094 4.54492188 21.18554688 C0.55225086 21.15542614 -3.09323694 20.89101614 -7 20 C-14.05840275 19.25379104 -19.60110247 20.65927114 -26.234375 23.0234375 C-29.71451043 24.25229888 -32.29611445 25.0755895 -36 25 C-38.678348 22.84567661 -40.46254419 21.07491161 -42 18 C-41.95586323 12.48290315 -41.07021714 7.65826048 -38 3 C-27.56716516 -6.97923333 -12.47823796 -6.15878698 0 0 Z " fill="#071C3B" transform="translate(595,564)"/>
<path d="M0 0 C1.5078125 1.75 1.5078125 1.75 3.125 4 C3.66382813 4.7425 4.20265625 5.485 4.7578125 6.25 C5.16773438 6.8275 5.57765625 7.405 6 8 C4.99326534 10.67000464 4.28828626 11.82290155 1.82373047 13.33691406 C0.93057129 13.72588867 0.03741211 14.11486328 -0.8828125 14.515625 C-1.87676025 14.95769287 -2.87070801 15.39976074 -3.89477539 15.85522461 C-4.96074951 16.31550049 -6.02672363 16.77577637 -7.125 17.25 C-9.33551626 18.23370009 -11.54515261 19.21937983 -13.75390625 20.20703125 C-15.37063232 20.92560303 -15.37063232 20.92560303 -17.02001953 21.65869141 C-20.74486197 23.33526722 -24.41607671 25.0974497 -28.0625 26.9375 C-28.6702124 27.24381348 -29.2779248 27.55012695 -29.90405273 27.86572266 C-36.86316167 31.4038284 -43.76039804 35.06315905 -50.67236328 38.69213867 C-57.68654228 42.35834667 -64.7471398 45.8260036 -72 49 C-73.00484204 47.04414675 -74.00373805 45.08523763 -75 43.125 C-75.8353125 41.48917969 -75.8353125 41.48917969 -76.6875 39.8203125 C-78 37 -78 37 -78 35 C-72.18832071 32.31072305 -66.37576157 29.62335495 -60.5625 26.9375 C-59.25519424 26.33349365 -59.25519424 26.33349365 -57.92147827 25.71728516 C-44.00799811 19.29118649 -30.07181341 12.91694736 -16.10961914 6.59741211 C-15.45374817 6.30027817 -14.7978772 6.00314423 -14.12213135 5.69700623 C-12.36992661 4.90337641 -10.61723395 4.11082406 -8.86450195 3.31835938 C-7.13716894 2.52337103 -5.42214931 1.69952013 -3.73510742 0.82226562 C-2 0 -2 0 0 0 Z " fill="#F4F4F6" transform="translate(819,414)"/>
<path d="M0 0 C2.90589467 1.03252002 3.87270331 1.77459343 5.4140625 4.50390625 C5.81367188 5.51324219 6.21328125 6.52257812 6.625 7.5625 C7.23214844 9.04943359 7.23214844 9.04943359 7.8515625 10.56640625 C15.30592645 32.85343316 10.19299419 55.52011505 0 76 C-0.66587716 77.30122141 -1.33513789 78.60071703 -2.0078125 79.8984375 C-2.33096436 80.52588867 -2.65411621 81.15333984 -2.98706055 81.79980469 C-3.87942004 83.513465 -4.79631743 85.21428412 -5.71484375 86.9140625 C-7.48756472 91.17074811 -7.66268275 94.19090406 -6.07421875 98.52734375 C-1.99913125 105.60996062 2.85260491 109.18805595 10 113 C10.67417969 113.3609375 11.34835937 113.721875 12.04296875 114.09375 C13.34560764 114.76208729 14.6696205 115.38874456 16 116 C15.67 117.65 15.34 119.3 15 121 C8.48875324 123.17041559 4.05277955 122.32774205 -2.0625 119.5 C-8.94845604 115.8048847 -12.92585715 111.41229953 -16.9375 104.8125 C-20.11034261 93.42759417 -17.58820156 85.94748698 -12.06103516 75.94702148 C-10.08832037 72.48315621 -8.0449933 69.07298532 -5.953125 65.6796875 C4.28003416 49.06212374 6.25058486 32.43606447 2.578125 13.41796875 C1.89187696 10.54778268 0.9530946 7.79120562 0 5 C-0.125 2.125 -0.125 2.125 0 0 Z " fill="#0C1E3C" transform="translate(493,539)"/>
<path d="M0 0 C0.70125 0.18304688 1.4025 0.36609375 2.125 0.5546875 C18.06915691 5.30276364 30.94547813 14.14798544 40.20703125 28.02734375 C41.17501671 30.4353864 40.87467207 31.60135942 40 34 C36.02515641 33.47915843 34.0951362 32.54650139 31.25 29.75 C23.91498667 23.04448408 15.14280553 19.63924522 6 16 C5.18015625 15.64292969 4.3603125 15.28585937 3.515625 14.91796875 C-8.2069066 10.64033688 -24.77633247 11.67426616 -36.5078125 15.26171875 C-40.33042778 16.39412359 -44.02812165 16.73954896 -48 17 C-49 16 -49 16 -49.3125 13.25 C-48.9155349 9.12156291 -47.99779396 7.84790427 -45 5 C-31.6122713 -3.23202892 -14.94870578 -3.98968837 0 0 Z " fill="#0D203E" transform="translate(593,501)"/>
<path d="M0 0 C2.8125 1.6875 2.8125 1.6875 5 4 C5.4375 6.625 5.4375 6.625 5 9 C2.86284122 11.13715878 1.82278367 11.51808353 -1 12.375 C-4.38394967 13.44703526 -7.65763856 14.64245861 -10.9375 16 C-29.93046854 23.66742335 -52.16066034 26.8609286 -71.7109375 19.41796875 C-75.88919577 17.61665313 -78.84657725 16.31109389 -82 13 C-82.5 9.25 -82.5 9.25 -82 6 C-81.67 5.67 -81.34 5.34 -81 5 C-75.51469245 5.41967331 -71.15698866 6.57773792 -66 8.5625 C-47.79751495 14.80637569 -25.68285189 11.63106946 -8 5 C-8 4.01 -8 3.02 -8 2 C-4.7243083 -0.18379446 -3.79929471 -0.54275639 0 0 Z " fill="#0C1F3E" transform="translate(569,675)"/>
<path d="M0 0 C0.5667041 0.11609619 1.1334082 0.23219238 1.71728516 0.35180664 C6.64372748 1.35017068 11.5761977 2.29367176 16.5234375 3.18359375 C18.20759766 3.49200195 18.20759766 3.49200195 19.92578125 3.80664062 C22.24726147 4.23123752 24.57023146 4.64775992 26.89453125 5.05664062 C28.00957031 5.26353516 29.12460937 5.47042969 30.2734375 5.68359375 C31.27810059 5.86462646 32.28276367 6.04565918 33.31787109 6.23217773 C36.17770471 7.05087214 37.85584591 7.94900135 40 10 C40.25 12.6875 40.25 12.6875 40 15 C34.93828337 17.82667292 30.82329506 19.30120459 25 20 C24.34 20.66 23.68 21.32 23 22 C22.67 21.01 22.34 20.02 22 19 C19.42130351 17.48216387 19.42130351 17.48216387 16.3125 16.125 C7.98137368 12.09285345 3.72224987 8.55578369 0 0 Z " fill="#D0D7DF" transform="translate(486,636)"/>
<path d="M0 0 C2.84629933 0.41857343 5.44822047 1.1450125 8.1875 2.03125 C12.16899576 3.04294155 15.80317945 3.26603077 19.875 3.1875 C20.57173828 3.18105469 21.26847656 3.17460938 21.98632812 3.16796875 C27.05333965 3.09255276 31.9871698 2.7161186 37 2 C37 6 37 6 35.0625 8.5 C29.01508711 13.43666358 23.25809433 15.64721645 15.41796875 15.24609375 C14.22107422 15.12427734 14.22107422 15.12427734 13 15 C11.91138672 14.89365234 11.91138672 14.89365234 10.80078125 14.78515625 C5.80049834 13.93748924 3.13365432 11.80815154 0.05859375 7.81640625 C-1.34289139 5.41164392 -1.55976724 3.71886944 -1 1 C-0.67 0.67 -0.34 0.34 0 0 Z " fill="#0B1E3B" transform="translate(504,711)"/>
<path d="M0 0 C1.52578923 4.57736768 -0.17648423 8.68812336 -1.3359375 13.2355957 C-2.21272497 16.69415696 -3.00586113 20.04067268 -3.515625 23.578125 C-4.011755 26.76295949 -4.47577534 29.15388139 -6 32 C-9.76145104 34.72203502 -13.63490712 36.45699042 -18 38 C-19.29675077 34.10974768 -18.36921999 32.47036454 -17.0625 28.625 C-15.47314248 24.05214022 -15.47314248 24.05214022 -15.04296875 19.2890625 C-14.98889118 16.40820306 -14.27332672 15.73326084 -12.25 13.75 C-9.68011854 11.01762018 -8.28676568 8.6230962 -6.9375 5.125 C-6.01171875 2.82421875 -6.01171875 2.82421875 -5 1 C-2.25 -0.0625 -2.25 -0.0625 0 0 Z " fill="#BDC8D4" transform="translate(630,720)"/>
<path d="M0 0 C2.90589467 1.03252002 3.87270331 1.77459343 5.4140625 4.50390625 C5.81367188 5.51324219 6.21328125 6.52257812 6.625 7.5625 C7.02976562 8.55378906 7.43453125 9.54507813 7.8515625 10.56640625 C10.39258548 18.16354638 11.28633309 25.06410176 11.125 33.0625 C11.11597656 33.92810547 11.10695313 34.79371094 11.09765625 35.68554688 C11.07439723 37.79048779 11.03854008 39.89528342 11 42 C10.67 42 10.34 42 10 42 C9.67 36.39 9.34 30.78 9 25 C8.34 25 7.68 25 7 25 C6.67 28.3 6.34 31.6 6 35 C5.67 35 5.34 35 5 35 C4.95512451 34.44650879 4.91024902 33.89301758 4.86401367 33.32275391 C3.94739667 19.9110126 3.94739667 19.9110126 0.5859375 6.97265625 C-0.12256685 4.58735828 -0.09467928 2.47457205 0 0 Z " fill="#243250" transform="translate(493,539)"/>
<path d="M0 0 C-2.56207058 1.12598637 -5.12463699 2.25081988 -7.6875 3.375 C-8.40873047 3.69210937 -9.12996094 4.00921875 -9.87304688 4.3359375 C-13.55975335 5.95202801 -17.24964156 7.53536298 -21 9 C-21 7.35 -21 5.7 -21 4 C-25.29 4 -29.58 4 -34 4 C-34 3.67 -34 3.34 -34 3 C-29.05 2.67 -24.1 2.34 -19 2 C-19 1.67 -19 1.34 -19 1 C-16.58440932 0.63645961 -14.16805703 0.28389449 -11.75 -0.0625 C-11.06808594 -0.16626953 -10.38617187 -0.27003906 -9.68359375 -0.37695312 C-6.1370435 -0.87622476 -3.42385223 -1.00798738 0 0 Z " fill="#152745" transform="translate(563,799)"/>
<path d="M0 0 C0 1.32 0 2.64 0 4 C-5.50243899 7.66829266 -11.60543766 7.12789125 -18 7 C-18 6.34 -18 5.68 -18 5 C-15.56686628 3.96748938 -13.12943108 2.94880479 -10.6875 1.9375 C-9.65206055 1.49567383 -9.65206055 1.49567383 -8.59570312 1.04492188 C-3.33984375 -1.11328125 -3.33984375 -1.11328125 0 0 Z " fill="#002351" transform="translate(617,928)"/>
<path d="M0 0 C0.12375 0.639375 0.2475 1.27875 0.375 1.9375 C0.58125 2.618125 0.7875 3.29875 1 4 C1.66 4.33 2.32 4.66 3 5 C-19.95907473 14.34697509 -19.95907473 14.34697509 -24 13 C-23.37955811 12.67725098 -22.75911621 12.35450195 -22.11987305 12.02197266 C-19.30815859 10.55808088 -16.4978176 9.09157148 -13.6875 7.625 C-12.71103516 7.11710938 -11.73457031 6.60921875 -10.72851562 6.0859375 C-9.79072266 5.59609375 -8.85292969 5.10625 -7.88671875 4.6015625 C-7.02264404 4.15119629 -6.15856934 3.70083008 -5.26831055 3.23681641 C-2.83068677 1.95117842 -2.83068677 1.95117842 0 0 Z " fill="#DCDDE3" transform="translate(637,774)"/>
<path d="M0 0 C3.1519441 3.1519441 3.91265974 7.18962029 5.25 11.375 C5.54390625 12.23867188 5.8378125 13.10234375 6.140625 13.9921875 C6.40875 14.8275 6.676875 15.6628125 6.953125 16.5234375 C7.20223633 17.28575684 7.45134766 18.04807617 7.70800781 18.83349609 C8.06964404 21.51674014 7.40265673 22.73530721 6 25 C5.01 24.67 4.02 24.34 3 24 C2.49387936 21.1259578 1.99493459 18.25097127 1.5 15.375 C1.35691406 14.56675781 1.21382813 13.75851562 1.06640625 12.92578125 C0.32123749 8.56122136 -0.17272306 4.44761871 0 0 Z " fill="#E0E1E8" transform="translate(442,664)"/>
<path d="M0 0 C0.66 0.33 1.32 0.66 2 1 C-0.16320933 5.46161925 -3.21139325 8.09292417 -6.93359375 11.21875 C-8.85786148 12.87747606 -10.61688868 14.60595406 -12.375 16.4375 C-15 19 -15 19 -17 19 C-17.2475 19.639375 -17.495 20.27875 -17.75 20.9375 C-19 23 -19 23 -21.078125 23.62890625 C-21.71234375 23.75136719 -22.3465625 23.87382813 -23 24 C-18.32533663 18.37696243 -13.32234333 13.20258446 -8.125 8.0625 C-7.34125 7.28326172 -6.5575 6.50402344 -5.75 5.70117188 C-3.83561419 3.79845915 -1.91891966 1.89813829 0 0 Z " fill="#13223F" transform="translate(102,76)"/>
<path d="M0 0 C1.32 0 2.64 0 4 0 C4 6.6 4 13.2 4 20 C3.67 20 3.34 20 3 20 C2.67 18.02 2.34 16.04 2 14 C1.34 15.65 0.68 17.3 0 19 C-0.33 19 -0.66 19 -1 19 C-0.67 12.73 -0.34 6.46 0 0 Z " fill="#05122C" transform="translate(499,563)"/>
<path d="M0 0 C0.66 0.33 1.32 0.66 2 1 C-1.63441275 7.27762202 -6.81293254 11.99111424 -12 17 C-12.66 16.01 -13.32 15.02 -14 14 C-9.61932717 8.89662734 -5.32423478 4.12628195 0 0 Z " fill="#152643" transform="translate(331,306)"/>
<path d="M0 0 C0 0.99 0 1.98 0 3 C-12.87 3 -25.74 3 -39 3 C-39 2.67 -39 2.34 -39 2 C-37.92685547 1.96241577 -37.92685547 1.96241577 -36.83203125 1.92407227 C-33.5545453 1.80720848 -30.27728384 1.68489577 -27 1.5625 C-25.87464844 1.52318359 -24.74929688 1.48386719 -23.58984375 1.44335938 C-15.72483374 1.14439701 -7.84801181 -0.1962003 0 0 Z " fill="#D3D6DE" transform="translate(991,1251)"/>
<path d="M0 0 C0.33 0 0.66 0 1 0 C1 9.57 1 19.14 1 29 C0.01 29.33 -0.98 29.66 -2 30 C-2.12498044 23.4385268 -1.63398664 17.02834887 -1 10.5 C-0.85691406 8.98019531 -0.85691406 8.98019531 -0.7109375 7.4296875 C-0.47726802 4.95279097 -0.24021596 2.47626873 0 0 Z " fill="#E3E7EB" transform="translate(1253,957)"/>
<path d="M0 0 C0.33 1.98 0.66 3.96 1 6 C1.99 6.33 2.98 6.66 4 7 C2.22844346 6.88570603 0.45773771 6.75816963 -1.3125 6.625 C-2.29863281 6.55539062 -3.28476562 6.48578125 -4.30078125 6.4140625 C-7 6 -7 6 -10 4 C-3.375 0 -3.375 0 0 0 Z " fill="#232F4B" transform="translate(790,752)"/>
<path d="M0 0 C0.33 0.66 0.66 1.32 1 2 C1.66 2 2.32 2 3 2 C1.90301833 7.69139902 0.45946923 12.74567937 -2 18 C-2.33 18 -2.66 18 -3 18 C-2.57045059 11.74892565 -1.98598493 5.95795479 0 0 Z " fill="#2A3A57" transform="translate(432,900)"/>
<path d="M0 0 C0.66 0.33 1.32 0.66 2 1 C-6.261959 10.59453303 -6.261959 10.59453303 -11 14 C-11.33 13.34 -11.66 12.68 -12 12 C-8.27653164 7.57905197 -4.70478962 3.42166518 0 0 Z " fill="#1A2642" transform="translate(742,538)"/>
<path d="M0 0 C0 3 0 3 -1 6 C-1.66 6 -2.32 6 -3 6 C-3 6.99 -3 7.98 -3 9 C-3.66 9 -4.32 9 -5 9 C-5.2475 9.598125 -5.495 10.19625 -5.75 10.8125 C-7.16370012 13.28647521 -8.65055383 14.43370255 -11 16 C-11.66 15.67 -12.32 15.34 -13 15 C-12.31292969 14.25234375 -11.62585937 13.5046875 -10.91796875 12.734375 C-10.0077189 11.73966898 -9.09756787 10.74487252 -8.1875 9.75 C-7.73568359 9.25886719 -7.28386719 8.76773437 -6.81835938 8.26171875 C-4.39181973 5.60492352 -2.09650029 2.92534924 0 0 Z " fill="#E1E4E9" transform="translate(1184,1143)"/>
<path d="M0 0 C4.43601966 3.51822249 5.52033129 7.75390186 7 13 C5.85073734 12.04578192 4.70569459 11.08647955 3.5625 10.125 C2.92441406 9.59132813 2.28632812 9.05765625 1.62890625 8.5078125 C0 7 0 7 -1 5 C-0.72057545 3.32345271 -0.39171753 1.65391846 0 0 Z " fill="#D8D9E0" transform="translate(784,534)"/>
<path d="M0 0 C0 0.66 0 1.32 0 2 C-0.99 2.33 -1.98 2.66 -3 3 C2.28 3.33 7.56 3.66 13 4 C13 4.33 13 4.66 13 5 C5.41 5 -2.18 5 -10 5 C-8.28489314 1.56978628 -3.75681361 0 0 0 Z " fill="#C3C8D0" transform="translate(761,759)"/>
<path d="M0 0 C-0.33 2.31 -0.66 4.62 -1 7 C-2.32 7.33 -3.64 7.66 -5 8 C-4.67 6.35 -4.34 4.7 -4 3 C-5.65 3.33 -7.3 3.66 -9 4 C-4.5 0 -4.5 0 0 0 Z " fill="#16233C" transform="translate(627,570)"/>
<path d="M0 0 C0.66 0.33 1.32 0.66 2 1 C2 1.66 2 2.32 2 3 C-1.85549665 6.43454913 -6.38640996 9.69320498 -11 12 C-11.66 11.67 -12.32 11.34 -13 11 C-8.71 7.37 -4.42 3.74 0 0 Z " fill="#152543" transform="translate(120,61)"/>
<path d="M0 0 C0.33 0.99 0.66 1.98 1 3 C-11.15240424 9.21189894 -11.15240424 9.21189894 -16 8 C-10.72 5.36 -5.44 2.72 0 0 Z " fill="#1E2C49" transform="translate(628,749)"/>
<path d="M0 0 C0.33 0.66 0.66 1.32 1 2 C-0.10281127 3.27200971 -1.20730769 4.54255853 -2.3125 5.8125 C-2.92738281 6.52019531 -3.54226563 7.22789062 -4.17578125 7.95703125 C-5.73334335 9.70136739 -7.32658875 11.36778041 -9 13 C-9.99 12.67 -10.98 12.34 -12 12 C-8.04 8.04 -4.08 4.08 0 0 Z " fill="#233051" transform="translate(834,713)"/>
<path d="M0 0 C1.18239258 0.00676758 1.18239258 0.00676758 2.38867188 0.01367188 C4.32164761 0.02538688 6.25458393 0.04332002 8.1875 0.0625 C8.1875 0.3925 8.1875 0.7225 8.1875 1.0625 C6.55941406 1.08376953 6.55941406 1.08376953 4.8984375 1.10546875 C3.45308387 1.15239582 2.00777269 1.20064305 0.5625 1.25 C-0.50677734 1.25870117 -0.50677734 1.25870117 -1.59765625 1.26757812 C-7.26890384 1.5017122 -9.78646275 3.08091426 -13.8125 7.0625 C-13.8125 5.0825 -13.8125 3.1025 -13.8125 1.0625 C-9.18790756 -0.11450048 -4.73383538 -0.05158412 0 0 Z " fill="#D8DBE3" transform="translate(957.8125,388.9375)"/>
<path d="M0 0 C0.33 0.99 0.66 1.98 1 3 C-2.3 6.3 -5.6 9.6 -9 13 C-9.66 12.34 -10.32 11.68 -11 11 C-7.37 7.37 -3.74 3.74 0 0 Z " fill="#0F1E3F" transform="translate(466,881)"/>
<path d="M0 0 C1.00109515 3.31070838 1.10356134 6.30084769 1.0625 9.75 C1.05347656 10.73484375 1.04445313 11.7196875 1.03515625 12.734375 C1.02355469 13.48203125 1.01195312 14.2296875 1 15 C0.67 15 0.34 15 0 15 C-0.33 18.63 -0.66 22.26 -1 26 C-1.33 26 -1.66 26 -2 26 C-2.19865739 17.10456358 -2.33447255 8.67089803 0 0 Z " fill="#626E82" transform="translate(718,575)"/>
<path d="M0 0 C0.66 0 1.32 0 2 0 C1.38801624 3.43950364 0.07941153 5.51564485 -2.0625 8.25 C-2.61035156 8.95640625 -3.15820312 9.6628125 -3.72265625 10.390625 C-4.14417969 10.92171875 -4.56570313 11.4528125 -5 12 C-5.99 11.67 -6.98 11.34 -8 11 C-6.71632558 9.16106176 -5.42283239 7.32897375 -4.125 5.5 C-3.04605469 3.96859375 -3.04605469 3.96859375 -1.9453125 2.40625 C-1.30335938 1.6121875 -0.66140625 0.818125 0 0 Z " fill="#192744" transform="translate(480,418)"/>
<path d="M0 0 C0.99 0.33 1.98 0.66 3 1 C2.28972656 1.60328125 1.57945312 2.2065625 0.84765625 2.828125 C-0.07144531 3.62734375 -0.99054688 4.4265625 -1.9375 5.25 C-2.85402344 6.03890625 -3.77054687 6.8278125 -4.71484375 7.640625 C-6.91526249 9.91251033 -7.66832555 10.92319022 -8 14 C-8.33 13.34 -8.66 12.68 -9 12 C-9.66 11.67 -10.32 11.34 -11 11 C-7.37 7.37 -3.74 3.74 0 0 Z " fill="#1B2A47" transform="translate(500,396)"/>
<path d="M0 0 C0.33 0 0.66 0 1 0 C1.04898438 0.69867187 1.09796875 1.39734375 1.1484375 2.1171875 C1.22320313 3.02726563 1.29796875 3.93734375 1.375 4.875 C1.44460938 5.77992188 1.51421875 6.68484375 1.5859375 7.6171875 C1.79568132 10.17941903 1.79568132 10.17941903 4 12 C4.66 12.33 5.32 12.66 6 13 C6 14.32 6 15.64 6 17 C3.5625 16.625 3.5625 16.625 1 16 C-0.50156874 12.99686252 -0.09281204 10.20932478 -0.0625 6.875 C-0.05347656 5.59367188 -0.04445313 4.31234375 -0.03515625 2.9921875 C-0.02355469 2.00476563 -0.01195312 1.01734375 0 0 Z " fill="#04122F" transform="translate(886,864)"/>
<path d="M0 0 C0.66 0.99 1.32 1.98 2 3 C-0.97 5.97 -3.94 8.94 -7 12 C-7.99 11.67 -8.98 11.34 -10 11 C-9.44570313 10.45730469 -8.89140625 9.91460938 -8.3203125 9.35546875 C-7.23363281 8.28232422 -7.23363281 8.28232422 -6.125 7.1875 C-5.40570312 6.47980469 -4.68640625 5.77210938 -3.9453125 5.04296875 C-1.84641063 2.95600806 -1.84641063 2.95600806 0 0 Z " fill="#1A2947" transform="translate(702,686)"/>
<path d="M0 0 C0.33 0.99 0.66 1.98 1 3 C-2.96 6.96 -6.92 10.92 -11 15 C-11.66 14.67 -12.32 14.34 -13 14 C-12.48050781 13.49210938 -11.96101563 12.98421875 -11.42578125 12.4609375 C-7.3775629 8.46509906 -3.55349109 4.44186386 0 0 Z " fill="#005DE4" transform="translate(425,594)"/>
<path d="M0 0 C0.33 0 0.66 0 1 0 C1.16682272 4.92127034 1.24828052 8.50343896 -1 13 C-1.33 11.68 -1.66 10.36 -2 9 C-3.32 9 -4.64 9 -6 9 C-6 8.01 -6 7.02 -6 6 C-5.195625 5.7525 -4.39125 5.505 -3.5625 5.25 C-0.828919 4.27761141 -0.828919 4.27761141 -0.1875 1.875 C-0.125625 1.25625 -0.06375 0.6375 0 0 Z " fill="#05122F" transform="translate(501,584)"/>
<path d="M0 0 C0.33 0 0.66 0 1 0 C1.33 3.3 1.66 6.6 2 10 C2.66 10 3.32 10 4 10 C4.66 11.32 5.32 12.64 6 14 C4.02 14.33 2.04 14.66 0 15 C0 10.05 0 5.1 0 0 Z " fill="#465369" transform="translate(885,868)"/>
<path d="M0 0 C0.33 0.99 0.66 1.98 1 3 C-1.9124385 7.02601793 -4.99491298 10.0247925 -9 13 C-9.66 12.67 -10.32 12.34 -11 12 C-10.37351562 11.38511719 -9.74703125 10.77023437 -9.1015625 10.13671875 C-8.28429687 9.32847656 -7.46703125 8.52023437 -6.625 7.6875 C-5.40683594 6.48673828 -5.40683594 6.48673828 -4.1640625 5.26171875 C-1.87395158 2.99990063 -1.87395158 2.99990063 0 0 Z " fill="#C8D0D9" transform="translate(700,716)"/>
<path d="M0 0 C1.67542976 0.28604898 3.34385343 0.61781233 5 1 C5 1.99 5 2.98 5 4 C4.01 4 3.02 4 2 4 C1.67 5.32 1.34 6.64 1 8 C-1 6 -1 6 -1.1875 3.4375 C-1 1 -1 1 0 0 Z " fill="#1E2641" transform="translate(504,711)"/>
<path d="M0 0 C-1.65091778 4.29238623 -4.73754566 6.8793915 -8 10 C-8.99 9.67 -9.98 9.34 -11 9 C-9.54782324 7.49403892 -8.08807139 5.99537896 -6.625 4.5 C-5.40683594 3.24703125 -5.40683594 3.24703125 -4.1640625 1.96875 C-2 0 -2 0 0 0 Z " fill="#005AE1" transform="translate(907,196)"/>
<path d="M0 0 C3.28788824 3.11016455 5.83735988 6.01618925 8 10 C7.34 10.66 6.68 11.32 6 12 C2 6.25 2 6.25 2 4 C1.34 4 0.68 4 0 4 C0 2.68 0 1.36 0 0 Z " fill="#122140" transform="translate(885,900)"/>
<path d="M0 0 C1.89668064 2.84502097 3.23263478 5.57299885 4.625 8.6875 C5.07101562 9.68136719 5.51703125 10.67523437 5.9765625 11.69921875 C6.31429688 12.45847656 6.65203125 13.21773437 7 14 C6.01 14 5.02 14 4 14 C3.67 12.02 3.34 10.04 3 8 C2.34 8 1.68 8 1 8 C-0.35439668 5.29120665 -0.06501451 2.99066732 0 0 Z " fill="#132242" transform="translate(471,707)"/>
<path d="M0 0 C0.99 0 1.98 0 3 0 C2.67 4.29 2.34 8.58 2 13 C1.34 13 0.68 13 0 13 C0 8.71 0 4.42 0 0 Z " fill="#172441" transform="translate(475,627)"/>
<path d="M0 0 C1.3271261 3.9813783 1.06915913 7.85045227 1 12 C0.34 12 -0.32 12 -1 12 C-1.33 10.35 -1.66 8.7 -2 7 C-2.99 6.67 -3.98 6.34 -5 6 C-3.35 4.02 -1.7 2.04 0 0 Z " fill="#C8CED7" transform="translate(580,861)"/>
<path d="M0 0 C1.5625 2.8125 1.5625 2.8125 3 6 C2.67 6.99 2.34 7.98 2 9 C1.34 9 0.68 9 0 9 C-0.0825 8.05125 -0.165 7.1025 -0.25 6.125 C-0.65074923 2.89538209 -0.65074923 2.89538209 -3.0625 1.625 C-3.701875 1.41875 -4.34125 1.2125 -5 1 C-3 0 -3 0 0 0 Z " fill="#D8DCE4" transform="translate(715,802)"/>
<path d="M0 0 C-1 3 -1 3 -2.92578125 4.203125 C-3.71339844 4.54859375 -4.50101563 4.8940625 -5.3125 5.25 C-6.09238281 5.60578125 -6.87226562 5.9615625 -7.67578125 6.328125 C-10.24607227 7.0711335 -11.51383429 6.88750996 -14 6 C-12.04414675 4.99515796 -10.08523763 3.99626195 -8.125 3 C-6.48917969 2.1646875 -6.48917969 2.1646875 -4.8203125 1.3125 C-2 0 -2 0 0 0 Z " fill="#192744" transform="translate(696,800)"/>
<path d="M0 0 C0.66 0.66 1.32 1.32 2 2 C0.35 4.97 -1.3 7.94 -3 11 C-3.99 11 -4.98 11 -6 11 C-4.02 7.37 -2.04 3.74 0 0 Z " fill="#001D50" transform="translate(364,761)"/>
<path d="M0 0 C2 2 2 2 2.1953125 4.1640625 C2.16050781 5.38222656 2.16050781 5.38222656 2.125 6.625 C2.10695313 7.44226563 2.08890625 8.25953125 2.0703125 9.1015625 C2.04710937 9.72804688 2.02390625 10.35453125 2 11 C1.01 10.67 0.02 10.34 -1 10 C-1.125 3.375 -1.125 3.375 0 0 Z " fill="#242F4A" transform="translate(580,719)"/>
<path d="M0 0 C-3.50538557 1.96301592 -7.13351728 2.95902388 -11 4 C-11.66 3.34 -12.32 2.68 -13 2 C-8.11922548 -0.44038726 -5.47332932 -1.46845421 0 0 Z " fill="#1B2E4E" transform="translate(757,535)"/>
<path d="M0 0 C2.40842385 0.39111157 3.71823174 0.7241637 5.484375 2.453125 C9.69273399 8.42795567 9.69273399 8.42795567 9 13 C2 4.55172414 2 4.55172414 2 1 C1.34 0.67 0.68 0.34 0 0 Z " fill="#242F4F" transform="translate(481,508)"/>
<path d="M0 0 C-2.60542016 1.73694677 -4.58342775 2.69100448 -7.5 3.6875 C-8.2734375 3.95949219 -9.046875 4.23148438 -9.84375 4.51171875 C-12 5 -12 5 -15 4 C-13.4470724 3.12855131 -11.88214564 2.27846343 -10.3125 1.4375 C-9.44238281 0.96183594 -8.57226562 0.48617187 -7.67578125 -0.00390625 C-4.61671247 -1.14268368 -3.08136961 -0.92718689 0 0 Z " fill="#AAAFBD" transform="translate(628,783)"/>
<path d="M0 0 C0.515625 0.391875 1.03125 0.78375 1.5625 1.1875 C-6.86607143 4.61607143 -6.86607143 4.61607143 -11.4375 4.1875 C-8.3207032 1.0707032 -4.39848267 -1.46616089 0 0 Z " fill="#25324E" transform="translate(612.4375,758.8125)"/>
<path d="M0 0 C2 1 2 1 2 1 Z M-2 1 C-1.34 1.33 -0.68 1.66 0 2 C-1.98 4.31 -3.96 6.62 -6 9 C-7.32 8.67 -8.64 8.34 -10 8 C-7.36 5.69 -4.72 3.38 -2 1 Z " fill="#162644" transform="translate(680,678)"/>
<path d="M0 0 C1.8125 0.125 1.8125 0.125 4 1 C5.95320589 4.20883825 7 6.2205439 7 10 C3.60582235 6.87378374 1.3937282 4.43458973 0 0 Z " fill="#C2CBD7" transform="translate(486,636)"/>
<path d="M0 0 C1.9375 0.75 1.9375 0.75 4 2 C4.75 4.125 4.75 4.125 5 6 C4.34 6 3.68 6 3 6 C3 6.66 3 7.32 3 8 C2.34 8 1.68 8 1 8 C0.67 5.36 0.34 2.72 0 0 Z " fill="#2D3551" transform="translate(493,539)"/>
<path d="M0 0 C6.93 2.97 6.93 2.97 14 6 C10.27459191 7.2418027 9.50405535 6.54830353 6 5 C4.00379834 4.32204472 2.00461299 3.65266469 0 3 C0 2.01 0 1.02 0 0 Z " fill="#182646" transform="translate(619,381)"/>
<path d="M0 0 C0.66 0.33 1.32 0.66 2 1 C0.11788404 4.48191452 -1.5009599 7.03178994 -5 9 C-5.99 8.67 -6.98 8.34 -8 8 C-5.36 5.36 -2.72 2.72 0 0 Z " fill="#192844" transform="translate(102,76)"/>
<path d="M0 0 C0.99 0.33 1.98 0.66 3 1 C-0.61328125 5.6875 -0.61328125 5.6875 -2 7 C-2.99 7 -3.98 7 -5 7 C-3.70700306 4.11562221 -2.34058637 2.12780579 0 0 Z " fill="#E7E9EC" transform="translate(957,905)"/>
<path d="M0 0 C0.33 0.66 0.66 1.32 1 2 C3.02463255 2.65213292 3.02463255 2.65213292 5 3 C3.92598892 5.91517292 3.22189824 7.77810176 1 10 C0.09732968 6.50215253 0 3.62269357 0 0 Z " fill="#162641" transform="translate(433,897)"/>
<path d="M0 0 C0.33 0.99 0.66 1.98 1 3 C-0.98 4.98 -2.96 6.96 -5 9 C-5.66 8.67 -6.32 8.34 -7 8 C-5.50902342 4.2047869 -3.24299151 2.38957269 0 0 Z " fill="#132444" transform="translate(514,384)"/>
<path d="M0 0 C0.66 0.66 1.32 1.32 2 2 C1.01 2.33 0.02 2.66 -1 3 C-1 4.32 -1 5.64 -1 7 C-1.99 7.33 -2.98 7.66 -4 8 C-4.66 6.68 -5.32 5.36 -6 4 C-4.02 2.68 -2.04 1.36 0 0 Z " fill="#092554" transform="translate(826,382)"/>
<path d="M0 0 C0.33 0.66 0.66 1.32 1 2 C3.52733235 2.65555119 3.52733235 2.65555119 6 3 C3.31158141 5.25245881 1.35358125 6.88213958 -2 8 C-1.47731534 5.23723823 -0.89130413 2.6739124 0 0 Z " fill="#33496C" transform="translate(446,933)"/>
<path d="M0 0 C0.99 0 1.98 0 3 0 C4.65 2.97 6.3 5.94 8 9 C7.01 9 6.02 9 5 9 C3.61328125 7.5390625 3.61328125 7.5390625 2.3125 5.625 C1.65701172 4.68527344 1.65701172 4.68527344 0.98828125 3.7265625 C0 2 0 2 0 0 Z " fill="#1A2A47" transform="translate(476,767)"/>
<path d="M0 0 C0.33 0 0.66 0 1 0 C2.23076923 6.4 2.23076923 6.4 1.0625 9.4375 C0.711875 9.953125 0.36125 10.46875 0 11 C-0.66 11 -1.32 11 -2 11 C-2.33 11.99 -2.66 12.98 -3 14 C-2.28547412 9.23649415 -1.20465156 4.65798604 0 0 Z " fill="#253754" transform="translate(449,477)"/>
<path d="M0 0 C0.66 0.33 1.32 0.66 2 1 C0.96508351 3.82249951 0.30084735 4.83374226 -2.375 6.3125 C-5.16653942 7.04361747 -6.30861211 6.79596365 -9 6 C-8.43410156 5.73445312 -7.86820313 5.46890625 -7.28515625 5.1953125 C-6.55167969 4.84210937 -5.81820312 4.48890625 -5.0625 4.125 C-4.33160156 3.77695312 -3.60070312 3.42890625 -2.84765625 3.0703125 C-0.83667541 2.1315023 -0.83667541 2.1315023 0 0 Z " fill="#293A58" transform="translate(718,810)"/>
<path d="M0 0 C8.43471074 1.47272727 8.43471074 1.47272727 11 5 C6.428721 4.45144652 2.32564205 3.58255197 -2 2 C-1.34 1.34 -0.68 0.68 0 0 Z " fill="#0A1E3F" transform="translate(517,775)"/>
<path d="M0 0 C-1.55759343 0.53532823 -3.12138045 1.05265378 -4.6875 1.5625 C-5.55761719 1.85253906 -6.42773438 2.14257812 -7.32421875 2.44140625 C-10.24631074 3.05141961 -12.14400553 2.77703633 -15 2 C-15 1.67 -15 1.34 -15 1 C-13.25215171 0.63536268 -11.50159498 0.2836922 -9.75 -0.0625 C-8.28820312 -0.35833984 -8.28820312 -0.35833984 -6.796875 -0.66015625 C-4.131881 -0.98397535 -2.51128277 -0.85503199 0 0 Z " fill="#2F3D56" transform="translate(551,685)"/>
<path d="M0 0 C1.32 0.33 2.64 0.66 4 1 C4.33 2.98 4.66 4.96 5 7 C4.01 7 3.02 7 2 7 C1.34 4.69 0.68 2.38 0 0 Z " fill="#2D3C58" transform="translate(720,615)"/>
<path d="M0 0 C0.66 0.33 1.32 0.66 2 1 C0.68 1.33 -0.64 1.66 -2 2 C-2 2.66 -2 3.32 -2 4 C-5.52948291 5.66670026 -7.28272326 6.13583456 -11 5 C-9.21289414 4.13633178 -7.4201535 3.28431406 -5.625 2.4375 C-4.62726563 1.96183594 -3.62953125 1.48617188 -2.6015625 0.99609375 C-1.74304688 0.66738281 -0.88453125 0.33867187 0 0 Z " fill="#36425C" transform="translate(354,293)"/>
<path d="M0 0 C-1.03491649 2.82249951 -1.69915265 3.83374226 -4.375 5.3125 C-7.16653942 6.04361747 -8.30861211 5.79596365 -11 5 C-9.54462432 4.16151196 -8.08559627 3.32936066 -6.625 2.5 C-5.81289063 2.0359375 -5.00078125 1.571875 -4.1640625 1.09375 C-2 0 -2 0 0 0 Z " fill="#1B2A49" transform="translate(694,751)"/>
<path d="M0 0 C0.66 0.99 1.32 1.98 2 3 C0.02 5.64 -1.96 8.28 -4 11 C-4.99 10.34 -5.98 9.68 -7 9 C-6.01 9 -5.02 9 -4 9 C-3.71125 8.2575 -3.4225 7.515 -3.125 6.75 C-2.17697356 4.43260203 -1.15154089 2.22082885 0 0 Z " fill="#015EE2" transform="translate(316,740)"/>
<path d="M0 0 C3.64775386 3.88309282 4.58525633 6.71201818 5 12 C1.75254486 7.86687528 0 5.36067372 0 0 Z " fill="#202C46" transform="translate(470,729)"/>
<path d="M0 0 C1.485 0.99 1.485 0.99 3 2 C2.67 4.64 2.34 7.28 2 10 C0.4375 8.375 0.4375 8.375 -1 6 C-0.6875 2.75 -0.6875 2.75 0 0 Z " fill="#081328" transform="translate(692,570)"/>
<path d="M0 0 C0.99 0.33 1.98 0.66 3 1 C1.02 5.455 1.02 5.455 -1 10 C-1.66 8.68 -2.32 7.36 -3 6 C-1.625 2.75 -1.625 2.75 0 0 Z " fill="#0F2040" transform="translate(700,552)"/>
<path d="M0 0 C1.12894876 0.93274109 2.25300876 1.87140122 3.375 2.8125 C4.00148438 3.33457031 4.62796875 3.85664063 5.2734375 4.39453125 C7 6 7 6 9 9 C6 9 6 9 4.39453125 7.5390625 C3.61142578 6.59160156 3.61142578 6.59160156 2.8125 5.625 C2.28269531 4.99851562 1.75289062 4.37203125 1.20703125 3.7265625 C0 2 0 2 0 0 Z " fill="#0F1E3D" transform="translate(671,417)"/>
<path d="M0 0 C0.66 0.99 1.32 1.98 2 3 C0.1875 5.5 0.1875 5.5 -2 8 C-2.99 8 -3.98 8 -5 8 C-3.62845496 5.04590299 -2.01136276 2.55991624 0 0 Z " fill="#1F2F4C" transform="translate(72,107)"/>
<path d="M0 0 C-0.66 0 -1.32 0 -2 0 C-2.33 0.66 -2.66 1.32 -3 2 C-6.9167686 3.23098442 -10.02389268 2.83220851 -14 2 C-14 1.67 -14 1.34 -14 1 C-12.41913952 0.63495397 -10.83516093 0.28339494 -9.25 -0.0625 C-8.36828125 -0.25972656 -7.4865625 -0.45695313 -6.578125 -0.66015625 C-4.01320972 -0.99825872 -2.42908361 -0.81158635 0 0 Z " fill="#002F72" transform="translate(318,908)"/>
<path d="M0 0 C0.66 0.66 1.32 1.32 2 2 C-1.465 4.97 -1.465 4.97 -5 8 C-5 5 -5 5 -2.5 2.3125 C-1.675 1.549375 -0.85 0.78625 0 0 Z " fill="#0D1E3F" transform="translate(963,903)"/>
<path d="M0 0 C4.75286041 4.29290618 4.75286041 4.29290618 5 8 C4.34 8.66 3.68 9.32 3 10 C2.49596232 8.70990357 1.99690074 7.41786211 1.5 6.125 C1.2215625 5.40570312 0.943125 4.68640625 0.65625 3.9453125 C0 2 0 2 0 0 Z " fill="#1D2A48" transform="translate(486,739)"/>
<path d="M0 0 C0.99 0.33 1.98 0.66 3 1 C1.02 3.31 -0.96 5.62 -3 8 C-3.99 7.67 -4.98 7.34 -6 7 C-4.02 4.69 -2.04 2.38 0 0 Z " fill="#142545" transform="translate(841,705)"/>
<path d="M0 0 C0.33 0 0.66 0 1 0 C1.0810206 2.10353495 1.13919907 4.20795952 1.1875 6.3125 C1.22230469 7.48425781 1.25710938 8.65601563 1.29296875 9.86328125 C1 13 1 13 -2 16 C-1.34 10.72 -0.68 5.44 0 0 Z " fill="#4C5A71" transform="translate(884,602)"/>
<path d="M0 0 C-3.79692186 2.82561627 -6.18569279 4.56638908 -11 4 C-4.14893617 -1.38297872 -4.14893617 -1.38297872 0 0 Z " fill="#E1E2E8" transform="translate(576,367)"/>
<path d="M0 0 C0.66 0 1.32 0 2 0 C1.7834375 0.8353125 1.7834375 0.8353125 1.5625 1.6875 C0.97230872 4.11384195 0.476571 6.54906345 0 9 C-0.99 8.34 -1.98 7.68 -3 7 C-2.25 2.25 -2.25 2.25 0 0 Z " fill="#0B162D" transform="translate(508,713)"/>
<path d="M0 0 C0.33 0.66 0.66 1.32 1 2 C-0.65 3.98 -2.3 5.96 -4 8 C-4.99 7.67 -5.98 7.34 -7 7 C-4.69 4.69 -2.38 2.38 0 0 Z " fill="#252E48" transform="translate(691,698)"/>
<path d="M0 0 C0.99 0.33 1.98 0.66 3 1 C0.6875 3.5 0.6875 3.5 -2 6 C-2.99 6 -3.98 6 -5 6 C-3.63016497 2.83884224 -3.0109362 2.0072908 0 0 Z " fill="#031C4A" transform="translate(747,547)"/>
<path d="M0 0 C0 0.99 0 1.98 0 3 C-2.3125 5.25 -2.3125 5.25 -5 7 C-5.99 6.67 -6.98 6.34 -8 6 C-2.25 1.125 -2.25 1.125 0 0 Z " fill="#122343" transform="translate(708,526)"/>
<path d="M0 0 C-2.31 1.65 -4.62 3.3 -7 5 C-7.33 3.68 -7.66 2.36 -8 1 C-2.25 -1.125 -2.25 -1.125 0 0 Z " fill="#00479F" transform="translate(577,817)"/>
<path d="M0 0 C1.32 0 2.64 0 4 0 C6.25 2.5 6.25 2.5 8 5 C7.67 5.66 7.34 6.32 7 7 C5.83040013 6.02433888 4.66438823 5.044375 3.5 4.0625 C2.8503125 3.51722656 2.200625 2.97195313 1.53125 2.41015625 C1.0259375 1.94480469 0.520625 1.47945312 0 1 C0 0.67 0 0.34 0 0 Z " fill="#15233F" transform="translate(733,635)"/>
<path d="M0 0 C0.66 0.66 1.32 1.32 2 2 C0.38405168 4.04119788 -1.2856382 6.04072937 -3 8 C-3.66 8 -4.32 8 -5 8 C-3.8141763 4.62496331 -2.72426311 2.35277269 0 0 Z " fill="#182341" transform="translate(560,564)"/>
<path d="M0 0 C0.66 0.33 1.32 0.66 2 1 C-1.465 3.97 -1.465 3.97 -5 7 C-5.66 6.34 -6.32 5.68 -7 5 C-4.69 3.35 -2.38 1.7 0 0 Z " fill="#D7DBE2" transform="translate(730,523)"/>
<path d="M0 0 C2.64 0.33 5.28 0.66 8 1 C8 1.33 8 1.66 8 2 C3.59085217 3.10228696 -0.48382401 3.07654536 -5 3 C-5 2.67 -5 2.34 -5 2 C-3.35 1.67 -1.7 1.34 0 1 C0 0.67 0 0.34 0 0 Z " fill="#0F2140" transform="translate(755,515)"/>
<path d="M0 0 C0.66 0.33 1.32 0.66 2 1 C1.01 2.98 0.02 4.96 -1 7 C-1.99 7 -2.98 7 -4 7 C-2.92598892 4.08482708 -2.22189824 2.22189824 0 0 Z " fill="#253453" transform="translate(548,506)"/>
<path d="M0 0 C2.125 0.9375 2.125 0.9375 4 2 C1.42786866 3.61949011 0.32330841 4.04408751 -2.75 3.625 C-3.4925 3.41875 -4.235 3.2125 -5 3 C-2 1 -2 1 0 0 Z " fill="#112647" transform="translate(649,774)"/>
<path d="M0 0 C-2.06756277 2.7972908 -3.14440371 3.02692273 -6.6875 3.6875 C-7.780625 3.790625 -8.87375 3.89375 -10 4 C-6.58908673 0.88145073 -4.68377325 -0.53528837 0 0 Z " fill="#07112D" transform="translate(535,721)"/>
<path d="M0 0 C-1.36983503 3.16115776 -1.9890638 3.9927092 -5 6 C-5.33 5.01 -5.66 4.02 -6 3 C-3.375 0 -3.375 0 0 0 Z " fill="#0D162C" transform="translate(697,719)"/>
<path d="M0 0 C0.66 0 1.32 0 2 0 C2.33 2.64 2.66 5.28 3 8 C2.01 8.495 2.01 8.495 1 9 C0.67 6.03 0.34 3.06 0 0 Z " fill="#1A263F" transform="translate(446,698)"/>
<path d="M0 0 C0.66 0.66 1.32 1.32 2 2 C-0.31 4.31 -2.62 6.62 -5 9 C-5.66 8.67 -6.32 8.34 -7 8 C-4.69 5.36 -2.38 2.72 0 0 Z " fill="#00205A" transform="translate(435,663)"/>
<path d="M0 0 C0 0.99 0 1.98 0 3 C-2.5 5.1875 -2.5 5.1875 -5 7 C-5 6.34 -5 5.68 -5 5 C-5.66 4.67 -6.32 4.34 -7 4 C-4.69 2.68 -2.38 1.36 0 0 Z " fill="#ABB0BF" transform="translate(779,640)"/>
<path d="M0 0 C-3.28463659 2.18975773 -6.20696275 2.99806563 -10 4 C-9.67 3.01 -9.34 2.02 -9 1 C-5.8035914 -0.06546953 -3.34252724 -0.07427838 0 0 Z " fill="#313D58" transform="translate(582,341)"/>
<path d="M0 0 C0.66 0.33 1.32 0.66 2 1 C2 1.66 2 2.32 2 3 C0.02 3.66 -1.96 4.32 -4 5 C-4.66 4.34 -5.32 3.68 -6 3 C-4.03533587 1.93224776 -2.03144641 0.93446535 0 0 Z " fill="#00204E" transform="translate(998,333)"/>
<path d="M0 0 C0 0.33 0 0.66 0 1 C-4.51617599 1.07654536 -8.59085217 1.10228696 -13 0 C-13 -0.33 -13 -0.66 -13 -1 C-8.15507803 -2.51403812 -4.7408989 -1.36602172 0 0 Z " fill="#3D4862" transform="translate(709,331)"/>
<path d="M0 0 C0.66 0.33 1.32 0.66 2 1 C2 1.66 2 2.32 2 3 C-0.3125 4.6875 -0.3125 4.6875 -3 6 C-3.99 5.67 -4.98 5.34 -6 5 C-4.02 3.35 -2.04 1.7 0 0 Z " fill="#1C2A48" transform="translate(120,61)"/>
<path d="M0 0 C-0.33 0.66 -0.66 1.32 -1 2 C-3.31 2 -5.62 2 -8 2 C-6.14210462 -1.71579076 -3.44525918 -1.06921837 0 0 Z " fill="#001C3D" transform="translate(608,932)"/>
<path d="M0 0 C0 0.66 0 1.32 0 2 C-4.43076923 4.09230769 -4.43076923 4.09230769 -7.3125 3.625 C-7.869375 3.41875 -8.42625 3.2125 -9 3 C-3.375 0 -3.375 0 0 0 Z " fill="#01214E" transform="translate(632,920)"/>
<path d="M0 0 C-1.04874998 2.62187494 -1.64931313 3.79371361 -4.125 5.25 C-4.74375 5.4975 -5.3625 5.745 -6 6 C-6 5.01 -6 4.02 -6 3 C-2.66666667 0 -2.66666667 0 0 0 Z " fill="#D6DCE4" transform="translate(655,762)"/>
<path d="M0 0 C-0.33 0.99 -0.66 1.98 -1 3 C-3.5625 4.1875 -3.5625 4.1875 -6 5 C-6.66 4.34 -7.32 3.68 -8 3 C-2.25 0 -2.25 0 0 0 Z " fill="#DADEE5" transform="translate(773,753)"/>
<path d="M0 0 C0.99 0.33 1.98 0.66 3 1 C4.1875 3.5625 4.1875 3.5625 5 6 C4.34 6.66 3.68 7.32 3 8 C0 2.25 0 2.25 0 0 Z " fill="#12223F" transform="translate(467,750)"/>
<path d="M0 0 C0.66 0.33 1.32 0.66 2 1 C0.35 2.98 -1.3 4.96 -3 7 C-3.66 6.34 -4.32 5.68 -5 5 C-3.35 3.35 -1.7 1.7 0 0 Z " fill="#1D2A4B" transform="translate(672,716)"/>
<path d="M0 0 C0.33 0.99 0.66 1.98 1 3 C-2.3 2.67 -5.6 2.34 -9 2 C-5.23312136 0.11656068 -3.97041037 -0.22057835 0 0 Z " fill="#2B3453" transform="translate(541,713)"/>
<path d="M0 0 C0.33 0 0.66 0 1 0 C1 3.3 1 6.6 1 10 C0.67 10 0.34 10 0 10 C0 8.35 0 6.7 0 5 C-0.66 5 -1.32 5 -2 5 C-1.125 1.125 -1.125 1.125 0 0 Z " fill="#D1D7DF" transform="translate(710,705)"/>
<path d="M0 0 C0.33 0.99 0.66 1.98 1 3 C-0.28965176 4.37562854 -1.62689293 5.70766393 -3 7 C-3.66 7 -4.32 7 -5 7 C-3.70700306 4.11562221 -2.34058637 2.12780579 0 0 Z " fill="#17203A" transform="translate(683,706)"/>
<path d="M0 0 C-0.33 0.99 -0.66 1.98 -1 3 C-3.64 3.33 -6.28 3.66 -9 4 C-6.1329385 1.1329385 -4.08408532 0 0 0 Z " fill="#29344E" transform="translate(560,358)"/>
<path d="M0 0 C-6.75 4 -6.75 4 -9 4 C-8 1 -8 1 -6.1875 -0.25 C-3.66056586 -1.11637742 -2.47778006 -0.88492145 0 0 Z " fill="#192642" transform="translate(545,357)"/>
</svg>
