<svg xmlns="http://www.w3.org/2000/svg" viewBox="0 0 420 360" role="img" aria-label="Isotipo Avia Rockets">
  <defs>
    <linearGradient id="gStar" x1="0" y1="0" x2="1" y2="1">
      <stop offset="0" stop-color="#2ea4ff" />
      <stop offset="1" stop-color="#1e78cc" />
    </linearGradient>
  </defs>

  <polygon
    points="210,16 245,122 358,122 266,191 300,302 210,232 120,302 154,191 62,122 175,122"
    fill="url(#gStar)"
  />

  <path
    d="M126 274 C130 232, 246 150, 356 88 C358 102, 346 121, 326 139 C309 154, 290 168, 268 180 C252 189, 235 198, 219 210 C179 236, 160 260, 156 278 C154 293, 167 302, 191 301 C177 311, 160 317, 140 318 C120 319, 107 309, 108 292 C109 284, 114 278, 126 274 Z"
    fill="#4b6583"
    opacity="0.95"
  />

  <path
    d="M343 93 C366 75, 389 69, 406 71 C399 87, 389 102, 377 115 C367 126, 356 133, 345 136 C346 130, 344 125, 339 121 C334 117, 327 115, 320 115 C324 106, 330 99, 343 93 Z"
    fill="#6d8097"
  />
</svg>
