<svg width="1600" height="900" viewBox="0 0 1600 900" fill="none" xmlns="http://www.w3.org/2000/svg">
<rect width="1600" height="900" rx="36" fill="#071635"/>
<rect x="48" y="48" width="1504" height="804" rx="24" fill="#0C204A" stroke="#1D4B9D"/>
<rect x="90" y="102" width="320" height="40" rx="12" fill="#123063"/>
<rect x="430" y="102" width="210" height="40" rx="12" fill="#2D5DB8"/>
<rect x="660" y="102" width="210" height="40" rx="12" fill="#204E9F"/>
<rect x="890" y="102" width="210" height="40" rx="12" fill="#204E9F"/>
<rect x="1120" y="102" width="210" height="40" rx="12" fill="#204E9F"/>
<rect x="90" y="185" width="560" height="270" rx="18" fill="#102A5D"/>
<path d="M130 380C205 295 278 280 352 313C416 341 462 347 612 236" stroke="#50C7FF" stroke-width="8" stroke-linecap="round"/>
<circle cx="352" cy="313" r="13" fill="#7DF37A"/>
<circle cx="612" cy="236" r="13" fill="#FFD27D"/>
<rect x="680" y="185" width="830" height="270" rx="18" fill="#0F2757"/>
<rect x="720" y="230" width="286" height="36" rx="10" fill="#204E9F"/>
<rect x="720" y="286" width="744" height="26" rx="8" fill="#1C437F"/>
<rect x="720" y="326" width="690" height="26" rx="8" fill="#1C437F"/>
<rect x="720" y="366" width="570" height="26" rx="8" fill="#1C437F"/>
<rect x="90" y="485" width="460" height="320" rx="18" fill="#0F2757"/>
<rect x="126" y="530" width="120" height="120" rx="12" fill="#1B4AA0"/>
<rect x="266" y="530" width="120" height="120" rx="12" fill="#1B4AA0"/>
<rect x="406" y="530" width="120" height="120" rx="12" fill="#1B4AA0"/>
<rect x="126" y="674" width="360" height="24" rx="8" fill="#2557B6"/>
<rect x="126" y="714" width="260" height="24" rx="8" fill="#2557B6"/>
<rect x="580" y="485" width="930" height="320" rx="18" fill="#0E2654"/>
<rect x="620" y="528" width="860" height="54" rx="12" fill="#1A4287"/>
<rect x="620" y="604" width="860" height="54" rx="12" fill="#1A4287"/>
<rect x="620" y="680" width="860" height="54" rx="12" fill="#1A4287"/>
<text x="113" y="129" fill="#BBD5FF" font-family="Inter, Arial" font-size="22" font-weight="700">AVIA RISK · Panel demo</text>
</svg>
