<svg width="1600" height="900" viewBox="0 0 1600 900" fill="none" xmlns="http://www.w3.org/2000/svg">
<rect width="1600" height="900" rx="36" fill="#08152E"/>
<rect x="56" y="56" width="1488" height="788" rx="24" fill="#102447" stroke="#205AA7"/>
<rect x="96" y="102" width="420" height="42" rx="12" fill="#173867"/>
<rect x="96" y="178" width="640" height="290" rx="18" fill="#12305C"/>
<rect x="770" y="178" width="730" height="290" rx="18" fill="#0E2950"/>
<rect x="810" y="224" width="240" height="36" rx="10" fill="#2F6DD2"/>
<rect x="810" y="282" width="640" height="24" rx="8" fill="#2255A7"/>
<rect x="810" y="322" width="596" height="24" rx="8" fill="#2255A7"/>
<rect x="810" y="362" width="540" height="24" rx="8" fill="#2255A7"/>
<rect x="96" y="498" width="432" height="302" rx="18" fill="#0F2A52"/>
<rect x="560" y="498" width="440" height="302" rx="18" fill="#0F2A52"/>
<rect x="1032" y="498" width="468" height="302" rx="18" fill="#0F2A52"/>
<path d="M136 396H630" stroke="#5CC8FF" stroke-width="10" stroke-linecap="round"/>
<circle cx="184" cy="395" r="46" fill="#2B69C8"/>
<circle cx="414" cy="395" r="46" fill="#4CC3FF"/>
<circle cx="572" cy="395" r="46" fill="#7F96FF"/>
<rect x="132" y="542" width="360" height="34" rx="10" fill="#1E4B95"/>
<rect x="132" y="596" width="278" height="22" rx="8" fill="#2A62B6"/>
<rect x="132" y="630" width="330" height="22" rx="8" fill="#2A62B6"/>
<rect x="132" y="664" width="240" height="22" rx="8" fill="#2A62B6"/>
<rect x="596" y="542" width="368" height="34" rx="10" fill="#1E4B95"/>
<rect x="596" y="596" width="304" height="22" rx="8" fill="#2A62B6"/>
<rect x="596" y="630" width="336" height="22" rx="8" fill="#2A62B6"/>
<rect x="596" y="664" width="254" height="22" rx="8" fill="#2A62B6"/>
<rect x="1072" y="542" width="388" height="34" rx="10" fill="#1E4B95"/>
<rect x="1072" y="596" width="320" height="22" rx="8" fill="#2A62B6"/>
<rect x="1072" y="630" width="338" height="22" rx="8" fill="#2A62B6"/>
<rect x="1072" y="664" width="260" height="22" rx="8" fill="#2A62B6"/>
<text x="104" y="132" fill="#C9DDFF" font-family="Inter, Arial" font-size="22" font-weight="700">AVIA FLEET · Centro de control</text>
</svg>
