<svg width="1600" height="900" viewBox="0 0 1600 900" fill="none" xmlns="http://www.w3.org/2000/svg">
<rect width="1600" height="900" rx="36" fill="#0A142C"/>
<rect x="52" y="52" width="1496" height="796" rx="24" fill="#112446" stroke="#275EA5"/>
<rect x="98" y="100" width="460" height="42" rx="12" fill="#173968"/>
<rect x="98" y="178" width="350" height="620" rx="18" fill="#0F2A52"/>
<rect x="478" y="178" width="1024" height="620" rx="18" fill="#0E2950"/>
<rect x="134" y="226" width="278" height="34" rx="10" fill="#2B67C5"/>
<rect x="134" y="284" width="212" height="20" rx="8" fill="#2A5FB3"/>
<rect x="134" y="316" width="246" height="20" rx="8" fill="#2A5FB3"/>
<rect x="134" y="348" width="192" height="20" rx="8" fill="#2A5FB3"/>
<rect x="134" y="414" width="278" height="34" rx="10" fill="#2B67C5"/>
<rect x="134" y="472" width="228" height="20" rx="8" fill="#2A5FB3"/>
<rect x="134" y="504" width="264" height="20" rx="8" fill="#2A5FB3"/>
<rect x="134" y="536" width="220" height="20" rx="8" fill="#2A5FB3"/>
<rect x="516" y="224" width="946" height="120" rx="16" fill="#153A71"/>
<rect x="550" y="264" width="410" height="24" rx="8" fill="#66D1FF"/>
<rect x="986" y="264" width="442" height="24" rx="8" fill="#7E95FF"/>
<rect x="516" y="376" width="438" height="386" rx="16" fill="#123461"/>
<rect x="982" y="376" width="480" height="182" rx="16" fill="#123461"/>
<rect x="982" y="580" width="480" height="182" rx="16" fill="#123461"/>
<path d="M570 708C646 598 748 557 842 610C886 634 906 658 932 684" stroke="#57C6FF" stroke-width="8" stroke-linecap="round"/>
<circle cx="748" cy="610" r="14" fill="#7C95FF"/>
<circle cx="932" cy="684" r="14" fill="#82E5A2"/>
<rect x="1020" y="420" width="404" height="24" rx="8" fill="#2458A9"/>
<rect x="1020" y="458" width="344" height="22" rx="8" fill="#2A66BF"/>
<rect x="1020" y="624" width="404" height="24" rx="8" fill="#2458A9"/>
<rect x="1020" y="662" width="344" height="22" rx="8" fill="#2A66BF"/>
<text x="107" y="129" fill="#CBE1FF" font-family="Inter, Arial" font-size="22" font-weight="700">AVIA SYSTEMS · Diseñador de automatizaciones</text>
</svg>
